<?xml version="1.0" encoding="utf-8"?>
<!-- Svg Vector Icons : http://www.onlinewebfonts.com/icon -->
<!DOCTYPE svg PUBLIC "-//W3C//DTD SVG 1.1//EN" "http://www.w3.org/Graphics/SVG/1.1/DTD/svg11.dtd">
<svg version="1.1" xmlns="http://www.w3.org/2000/svg" xmlns:xlink="http://www.w3.org/1999/xlink" x="0px" y="0px" viewBox="0 0 1000 1000" enable-background="new 0 0 1000 1000" xml:space="preserve">
<metadata> Svg Vector Icons : http://www.onlinewebfonts.com/icon </metadata>
<g><path d="M978,367.5l-453.2-319c-3.5-3.5-7.5-6.3-11.7-8.1c-13.4-7.7-31.7-2.8-42.6,11.5L22,368.5c-13.9,9.8-16,30.9-4.8,47.2c11.3,16.2,31.7,21.4,45.6,11.6l31.3-22.1v522.4c0,19.7,15.9,35.6,35.6,35.6c19.7,0,35.6-15.9,35.6-35.6V354.9l334.7-236.3l341.7,240.5v568.5c0,19.7,15.9,35.6,35.6,35.6c19.7,0,35.6-15.9,35.6-35.6V409.3l24,16.9c13.9,9.8,34.4,4.6,45.7-11.6C994,398.4,991.9,377.3,978,367.5z M343.4,395.4h-77c-29.5,0-35.6,6.1-35.6,35.6v78.1c0,29.5,6.1,35.6,35.6,35.6h77c29.5,0,35.6-6.1,35.6-35.6v-78.1C379,401.6,372.9,395.4,343.4,395.4z M343.4,586.6h-77c-29.5,0-35.6,6.1-35.6,35.6v78.1c0,29.5,6.1,35.6,35.6,35.6h77c29.5,0,35.6-6.1,35.6-35.6v-78.1C379,592.7,372.9,586.6,343.4,586.6z M343.4,778h-77c-29.5,0-35.6,6.1-35.6,35.6v78.1c0,29.5,6.1,35.6,35.6,35.6h77c29.5,0,35.6-6.1,35.6-35.6v-78.1C379,784.1,372.9,778,343.4,778z M545,778h-77c-29.5,0-35.6,6.1-35.6,35.6v78.1c0,29.5,6.1,35.6,35.6,35.6h77c29.5,0,35.6-6.1,35.6-35.6v-78.1C580.7,784.1,574.6,778,545,778z M746.9,778h-77.3c-29.5,0-35.6,6.1-35.6,35.6v78.1c0,29.5,6.1,35.6,35.6,35.6h77.3c29.5,0,35.6-6.1,35.6-35.6v-78.1C782.6,784.1,776.5,778,746.9,778z M545,586.6h-77c-29.5,0-35.6,6.1-35.6,35.6v78.1c0,29.5,6.1,35.6,35.6,35.6h77c29.5,0,35.6-6.1,35.6-35.6v-78.1C580.7,592.7,574.6,586.6,545,586.6z"/></g>
</svg>