<?xml version="1.0" encoding="utf-8"?>
<!-- Svg Vector Icons : http://www.onlinewebfonts.com/icon -->
<!DOCTYPE svg PUBLIC "-//W3C//DTD SVG 1.1//EN" "http://www.w3.org/Graphics/SVG/1.1/DTD/svg11.dtd">
<svg version="1.1" xmlns="http://www.w3.org/2000/svg" xmlns:xlink="http://www.w3.org/1999/xlink" x="0px" y="0px" viewBox="0 0 1000 1000" enable-background="new 0 0 1000 1000" xml:space="preserve">
<metadata> Svg Vector Icons : http://www.onlinewebfonts.com/icon </metadata>
<g><path fill='#ffbc00' d="M576,167.8c-3.6,3.4-7.9,6-11.2,9.6L221,506.9c-65,62.3-67.1,165.6-4.8,230.6c62.3,65,165.6,67.1,230.6,4.8L742,459.3l-56.4-58.7L566.8,514.3L390.4,683.5c-32.5,31.2-84.1,30.1-115.3-2.4c-31.2-32.5-29.2-83.2,3.3-114.4l175.5-170.1l104.8-100.5l73.6-69.4c65-62.3,168.3-60.1,230.6,4.8c62.3,65,60.1,168.3-4.8,230.6l-72.7,69.7L504.8,800.9l0.3,0.4c-97.6,93.1-252.1,89.8-345.5-7.6c-93.5-97.5-90.2-252.4,7.3-345.9l155.7-149.3l198.4-190.2l-56.4-58.9L110.1,389.3l0,0C-19.6,514-23.8,720.2,100.7,850.1c124.6,130.1,331.1,134.4,461.2,9.7l-0.3-0.4l353.1-338.6c97.5-93.5,100.8-248.3,7.3-345.9C828.5,77.3,673.5,74.3,576,167.8z"/></g>
</svg>