<?xml version="1.0" encoding="utf-8"?>
<!-- Svg Vector Icons : http://www.onlinewebfonts.com/icon -->
<!DOCTYPE svg PUBLIC "-//W3C//DTD SVG 1.1//EN" "http://www.w3.org/Graphics/SVG/1.1/DTD/svg11.dtd">
<svg version="1.1" xmlns="http://www.w3.org/2000/svg" xmlns:xlink="http://www.w3.org/1999/xlink" x="0px" y="0px" viewBox="0 0 1000 1000" enable-background="new 0 0 1000 1000" xml:space="preserve">
<metadata> Svg Vector Icons : http://www.onlinewebfonts.com/icon </metadata>
<g><path d="M734.7,346.2H262c-9.4,0-17-7.6-17-17c0-9.4,7.6-17,17-17h472.7c9.4,0,17,7.6,17,17C751.7,338.6,744.1,346.2,734.7,346.2z"/><path d="M734.7,520.4H262c-9.4,0-17-7.6-17-17c0-9.4,7.6-17,17-17h472.7c9.4,0,17,7.6,17,17C751.7,512.8,744.1,520.4,734.7,520.4z"/><path d="M734.7,694.5H262c-9.4,0-17-7.6-17-17c0-9.4,7.6-17,17-17h472.7c9.4,0,17,7.6,17,17C751.7,686.9,744.1,694.5,734.7,694.5z"/><path d="M371.7,97.4h257.6c20.3,0,37.3-20.3,37.3-43.7c0-23.5-17.1-43.7-38.4-43.7H371.7c-21.3,0-38.4,20.2-38.4,43.7C333.4,77.2,350.4,97.4,371.7,97.4L371.7,97.4L371.7,97.4z"/><path d="M827.3,41.9h-60.1c-0.3,0-0.7,0-1,0h-40.7v0c0,0,0,0,0,0c-9.4,0-17,7.6-17,17c0,9.4,7.6,17,17,17c0,0,0,0,0.1,0c0,0,0,0,0,0h40.4l0.2,0l0.6,0h0.6h60.1c28.6,0,50.8,8.3,66.1,24.7c14.6,15.6,22.2,38,22.2,65v695.8c0,32.5-7.8,56.8-23.1,72c-15.3,15.1-39.4,22.8-71.7,22.8H179.2c-30.9,0-54.8-8.6-71.1-25.6c-15.5-16.2-23.7-40.2-23.7-69.2V165.5c0-19.6,3.5-46.8,20.3-65.5c14.4-16,37.3-24.2,68.1-24.2c0,0,60.5,0,61.1,0h41c0,0,0,0,0,0c9.3-0.1,16.7-7.7,16.7-17c0-9.3-7.5-16.8-16.7-17c0,0,0,0,0,0h-41c-0.3,0-61.1,0-61.1,0c-85.8,0-122.3,53.3-122.3,123.6v695.8c0,75.4,45.5,128.8,128.8,128.8h641.7c83.2,0,128.8-44.2,128.8-128.8V165.5C949.6,95.2,906.7,41.9,827.3,41.9z"/></g>
</svg>