<?xml version="1.0" encoding="utf-8"?>
<!-- Svg Vector Icons : http://www.onlinewebfonts.com/icon -->
<!DOCTYPE svg PUBLIC "-//W3C//DTD SVG 1.1//EN" "http://www.w3.org/Graphics/SVG/1.1/DTD/svg11.dtd">
<svg version="1.1" xmlns="http://www.w3.org/2000/svg" xmlns:xlink="http://www.w3.org/1999/xlink" x="0px" y="0px" viewBox="0 0 1000 1000" enable-background="new 0 0 1000 1000" xml:space="preserve">
<metadata> Svg Vector Icons : http://www.onlinewebfonts.com/icon </metadata>
<g><path d="M734.1,438V255c0-133.4-105.4-245-235.7-245c-130.3,0-235.7,108.5-235.7,245v183c-49.6,0-89.9,40.3-89.9,93v366c0,49.6,40.3,93,89.9,93h474.5c49.6,0,89.9-40.3,89.9-93V527.9C824.1,478.3,783.8,438,734.1,438z M321.7,255c0-102.3,77.5-183,176.8-183c99.2,0,176.8,80.6,176.8,183v183H321.7V255z M765.2,893.9c0,15.5-12.4,31-31,31H262.8c-15.5,0-31-12.4-31-31V527.9c0-15.5,12.4-31,31-31h474.5c15.5,0,31,12.4,31,31v365.9H765.2z M529.5,689.2v-68.2c0-15.5-12.4-31-31-31c-18.6,0-31,12.4-31,31v68.2c-18.6,9.3-31,31-31,52.7c0,34.1,27.9,62,58.9,62c34.1,0,58.9-27.9,58.9-62C557.4,720.2,545,701.6,529.5,689.2z"/></g>
</svg>