<?xml version="1.0" encoding="utf-8"?>
<!-- Svg Vector Icons : http://www.onlinewebfonts.com/icon -->
<!DOCTYPE svg PUBLIC "-//W3C//DTD SVG 1.1//EN" "http://www.w3.org/Graphics/SVG/1.1/DTD/svg11.dtd">
<svg version="1.1" xmlns="http://www.w3.org/2000/svg" xmlns:xlink="http://www.w3.org/1999/xlink" x="0px" y="0px" viewBox="0 0 1000 1000" enable-background="new 0 0 1000 1000" xml:space="preserve">
<metadata> Svg Vector Icons : http://www.onlinewebfonts.com/icon </metadata>
<g><path d="M31.9,984c2.4,0,5-0.3,7.6-0.9l304.4-106l311.5,108.8L960.5,879c16.2-3.9,29.5-19.3,29.5-34.1V247.4c0-12.4-9.3-20.6-21.9-20.6c-2.4,0-5,0.3-7.6,0.9L655.2,333.9l-89.5-30.2c3.7-17.6,5.8-35.1,5.8-52.2c0-128.7-84.3-237.4-231.2-237.4c-127.6,0-235.6,108.7-235.6,237.4c0,20.4,2.9,40.9,8.1,61.3l-73.3,26.7c-16.2,4-29.5,19.4-29.5,34.1v589.8C10,975.8,19.3,984,31.9,984z M340.3,53c132.8,0,192.3,99.7,192.3,198.5c0,87-62,202.6-184.4,343.4c-0.7,0.7-1.7,1.5-2.6,2.1c-0.9-0.6-1.9-1.4-2.6-2.1l-10.2-11.7C253,491.6,143.6,366.1,143.6,251.5C143.6,143.9,233.7,53,340.3,53z M55.2,379.1l70.5-26.2C165,452.9,251.1,548.4,314.2,621c0.3,0.4,13.9,15.5,30.7,15.5c0,0,1.4,0,1.5,0c16.8,0,30.3-15.1,30.6-15.5c59-67.8,138.2-168.4,174.6-268.6l103.6,32.9l289.6-104.4V839L655.4,940.9L343.9,832.2L55.2,932.2L55.2,379.1L55.2,379.1z"/><path d="M455.5,248.6c0-64.4-52.3-116.7-116.7-116.7c-64.4,0-116.7,52.2-116.7,116.7c0,64.4,52.2,116.7,116.7,116.7C403.2,365.3,455.5,313.1,455.5,248.6z M260.1,247.8c0-42.9,34.9-77.8,77.8-77.8c42.9,0,77.8,34.9,77.8,77.8c0,42.9-34,78.6-76.9,78.6C295.9,326.4,260.1,290.7,260.1,247.8z"/></g>
</svg>