<svg xmlns="http://www.w3.org/2000/svg" xmlns:xlink="http://www.w3.org/1999/xlink" width="500" height="449.584" viewBox="0 0 500 449.584">
  <defs>
    <filter id="Unione_3" x="28.094" y="0" width="444.37" height="449.584" filterUnits="userSpaceOnUse">
      <feOffset dy="5" input="SourceAlpha"/>
      <feGaussianBlur stdDeviation="7.5" result="blur"/>
      <feFlood flood-color="#122a40"/>
      <feComposite operator="in" in2="blur"/>
      <feComposite in="SourceGraphic"/>
    </filter>
  </defs>
  <g id="Raggruppa_240" data-name="Raggruppa 240" transform="translate(-570 -467.222)">
    <g id="Raggruppa_223" data-name="Raggruppa 223" transform="translate(2677.368 1539.504)">
      <g id="Raggruppa_69" data-name="Raggruppa 69" transform="translate(-2107 -1064.782)">
        <g id="Raggruppa_67" data-name="Raggruppa 67" transform="translate(0 0)">
          <rect id="Rettangolo_32" data-name="Rettangolo 32" width="5" height="25" rx="2" transform="translate(24.632 0)" fill="#bb7d10"/>
          <rect id="Rettangolo_33" data-name="Rettangolo 33" width="4" height="25" rx="2" transform="translate(470.632 0)" fill="#bb7d10"/>
          <rect id="Rettangolo_29" data-name="Rettangolo 29" width="480" height="6" transform="translate(11.632 10)" fill="#ffb13b"/>
          <rect id="Rettangolo_30" data-name="Rettangolo 30" width="480" height="3" transform="translate(11.632 10)" fill="#bb7d10"/>
          <circle id="Ellisse_4" data-name="Ellisse 4" cx="12.5" cy="12.5" r="12.5" transform="translate(-0.368 0)" fill="#ba7c0f"/>
          <circle id="Ellisse_6" data-name="Ellisse 6" cx="12.5" cy="12.5" r="12.5" transform="translate(474.632 0)" fill="#ba7c0f"/>
          <circle id="Ellisse_5" data-name="Ellisse 5" cx="12.5" cy="12.5" r="12.5" transform="translate(-0.368 1)" fill="#ffb13b"/>
          <circle id="Ellisse_7" data-name="Ellisse 7" cx="12.5" cy="12.5" r="12.5" transform="translate(474.632 1)" fill="#ffb13b"/>
          <rect id="Rettangolo_34" data-name="Rettangolo 34" width="6" height="25" rx="2" transform="translate(23.632 0)" fill="#ffb13b"/>
          <rect id="Rettangolo_35" data-name="Rettangolo 35" width="5" height="25" rx="2" transform="translate(470.632 0)" fill="#ffb13b"/>
        </g>
        <g id="Raggruppa_68" data-name="Raggruppa 68" transform="translate(49.632 9.785)">
          <g transform="matrix(1, 0, 0, 1, -50, -17.28)" filter="url(#Unione_3)">
            <path id="Unione_3-2" data-name="Unione 3" d="M199.685,354.58,0,404.584V10.69H23.085V0H66.947V10.69h34.627V0h43.862V10.69h32.319V0h43.861V10.69h34.628V0H300.1V10.69h32.319V0h43.862V10.69H399.37V404.584Z" transform="translate(50.59 17.5)" fill="#882b21"/>
          </g>
          <path id="Tracciato_62" data-name="Tracciato 62" d="M0,7.531l199.686-50,199.686,50v4.6l-199.686-50L0,12.134Z" transform="translate(0.592 369.713)" fill="#dfdfdd"/>
          <path id="Tracciato_63" data-name="Tracciato 63" d="M0,7.531l199.686-50,199.686,50v2.3l-199.686-50L0,9.832Z" transform="translate(0.592 383.521)" fill="#dfdfdd"/>
        </g>
      </g>
    </g>
    <path id="path4691" d="M64.073,42.8a2.94,2.94,0,0,1-.639-.47,4.611,4.611,0,0,1-.869-1.7c0-.224.343-.186.874.1a2.048,2.048,0,0,0,1.136.249,1.322,1.322,0,0,0,1.194-.429,3.677,3.677,0,0,0,.743-.815,6.683,6.683,0,0,0,.231-4.05,21.234,21.234,0,0,0-1.117-3.61,18.118,18.118,0,0,1-.7-2.933l-.031-.348-.122.3a21.068,21.068,0,0,1-5.944,7.067,2.832,2.832,0,0,0-1.392,1.608,6.872,6.872,0,0,1-1.778,2.439A4.462,4.462,0,0,1,53.1,41.586a1.774,1.774,0,0,1-1.875-.459.931.931,0,0,1-.345-.848,2.687,2.687,0,0,0-.023-.492c-.013,0-.192.064-.4.142a12.077,12.077,0,0,1-2.712.512,39.929,39.929,0,0,1-7.458.242,1.115,1.115,0,0,0-.442-.1c-.14,0-.826-.108-1.523-.24s-1.437-.268-1.642-.3c-.345-.058-.373-.088-.373-.4,0-.389.037-.407,1.044-.506a2.79,2.79,0,0,0,.814-.162,4.086,4.086,0,0,1,.928-.236,4.754,4.754,0,0,0,2.55-1.331,3.078,3.078,0,0,1,.631-.264l.517-.169-.956-.329a13.628,13.628,0,0,1-2.345-.986,2.453,2.453,0,0,0-.5-.245,24.872,24.872,0,0,1-3.432-1.684l-.4-.277-1.045,1a23.676,23.676,0,0,1-6.908,4.606c-.768.349-1.474.676-1.568.728a17.849,17.849,0,0,1-2.678.752,19.052,19.052,0,0,1-6.7.386,16.356,16.356,0,0,1-3.4-1.065c-.373-.3.29-.321,1.8-.063a3.478,3.478,0,0,0,2.992-1.048,4.492,4.492,0,0,1,1.343-.773A4.2,4.2,0,0,1,21.1,37.83l.261.082-.049-.688c-.082-1.144.3-1.627,1.425-1.781.47-.064.987.091,1.076.324.105.274.209.134.21-.283A1.919,1.919,0,0,1,24.971,34c.308-.159.431-.168.995-.072a3.265,3.265,0,0,1,.87.252c.209.132.245.121.464-.139A2.364,2.364,0,0,1,29,33.466a1.658,1.658,0,0,1,.633.315,2.409,2.409,0,0,1,.7,1.443c0,.338.084.355.425.087a1.128,1.128,0,0,1,.319-.2,4.534,4.534,0,0,0,.662-.472c.327-.26.759-.6.958-.75a11.005,11.005,0,0,0,1.316-1.2c0-.024-.593-.344-1.318-.712s-1.452-.748-1.616-.845a2.988,2.988,0,0,0-.547-.249,1.3,1.3,0,0,1-.4-.2A9.049,9.049,0,0,0,29,30.133C25.4,28.6,23.377,28.173,21.73,28.6c-.689.179-.85.3-.544.392.261.083.5.6.5,1.093,0,.508-.44.774-1.188.719a.889.889,0,0,1-.824-.379c-.849-1.016-.437-2.185,1.008-2.863.538-.252.614-.26,2.4-.257a13.819,13.819,0,0,1,4.51.6,2.365,2.365,0,0,0,.736.106c.03-.03-.069-.241-.22-.469a3.962,3.962,0,0,1-.582-2.265c.069-.264.186-.264.405,0a5.763,5.763,0,0,0,1.177.686,3.88,3.88,0,0,1,1.309.849c.321.389.522.391.522.005s.23-.494.609-.3a2.044,2.044,0,0,1,.508.379c.207.239,1.414,2.2,1.657,2.7a8.445,8.445,0,0,0,.936,1.015l.838.816.3-.419a14.4,14.4,0,0,1,1.282-1.492,9.058,9.058,0,0,0,.633-.765,4.963,4.963,0,0,1,.411-.514c.092-.092.594-.7,1.115-1.36S40.259,25.6,40.363,25.5a6.4,6.4,0,0,0,.57-.767,3.061,3.061,0,0,1,.649-.746,9.078,9.078,0,0,0,.933-.786l.667-.624-2.558.008c-2.376.008-2.587.023-2.959.213a2.837,2.837,0,0,0-.553.357,2.488,2.488,0,0,1-1.353.545,1.138,1.138,0,0,1-.745-.924c0-.573.543-.554-9.547-.333-1.394.031-2.572.078-2.617.106a1.108,1.108,0,0,0-.017.57,2.855,2.855,0,0,1-.494,1.9,2.73,2.73,0,0,1-3.011.214,2.033,2.033,0,0,1-.791-1.78,2.144,2.144,0,0,1,.219-.743c.088-.135.135-.27.1-.3a3.4,3.4,0,0,0-.9.108,9.671,9.671,0,0,1-1.07.166,1.416,1.416,0,0,0-.529.158,6.317,6.317,0,0,1-.995.342c-.383.1-.853.238-1.044.3l-.788.269a8.493,8.493,0,0,0-1.116.533,5,5,0,0,1-.764.383,1.9,1.9,0,0,0-.476.278,7.959,7.959,0,0,1-.836.507,5,5,0,0,0-1.29.92,2.1,2.1,0,0,0,1.076.14A16.9,16.9,0,0,1,14,27.343a18.8,18.8,0,0,1,3.744,1.838A10.648,10.648,0,0,1,20.2,31.829a5.12,5.12,0,0,1,.262,1.094,2.3,2.3,0,0,1-.083,1.487,2.335,2.335,0,0,1-3.1,1.657,1.677,1.677,0,0,1-1.164-1.679,1.6,1.6,0,0,1,1.291-1.366,1.185,1.185,0,0,1,1.058.66.741.741,0,0,1,0,.75c-.122.312-.125.381-.016.381.182,0,.51-.434.651-.862.342-1.036-.616-2.707-1.875-3.272-1.321-.592-1.684-.623-6.081-.511-1.752.045-2.168.029-2.335-.088-.378-.265-.426-.186-.386.629.042.848.056.814-.544,1.343A1.061,1.061,0,0,1,7,32.426c-.4,0-.448.022-.381.174A2.444,2.444,0,0,1,6.114,35c-.362.318-.512.334-1.414.151-.207-.042-.224-.009-.228.429A3.459,3.459,0,0,1,3.9,37.569a6.233,6.233,0,0,0-.473.925,1.449,1.449,0,0,1-.282.479c-.165.18-.219.389-.247.954a2.221,2.221,0,0,0,.761,1.941c.447.48.68.871.579.973-.122.122-.769-.3-1.36-.878a6.6,6.6,0,0,1-1.575-2.739A4.984,4.984,0,0,1,1,37.033,7.618,7.618,0,0,1,1.3,34.562a14.211,14.211,0,0,1,.5-1.609,3.123,3.123,0,0,0,.19-.481,19.644,19.644,0,0,1,2.118-3.926A16.674,16.674,0,0,1,8.715,24.51c.377-.2,1-.543,1.382-.755a32.777,32.777,0,0,1,3.183-1.524c.372-.143.258-.149-1.741-.1-6.173.154-6.671.188-7.153.492a1.267,1.267,0,0,0-.489.546c-.1.286-.138.3-.609.3-.75,0-.976-.292-.9-1.171.018-.223,0-.226-.9-.2l-.92.028-.085-.323a1.488,1.488,0,0,1,0-.647l.085-.323.92.028c.9.027.919.024.9-.2-.072-.879.154-1.171.9-1.171.471,0,.509.019.609.3a1.267,1.267,0,0,0,.489.546c.482.3.98.338,7.153.492,2,.05,2.112.043,1.741-.1A32.779,32.779,0,0,1,10.1,19.214c-.383-.212-1-.552-1.382-.755a16.673,16.673,0,0,1-4.606-4.037A19.644,19.644,0,0,1,1.99,10.5a3.127,3.127,0,0,0-.19-.481,14.211,14.211,0,0,1-.5-1.609A7.618,7.618,0,0,1,1,5.936a4.984,4.984,0,0,1,.31-2.19A6.6,6.6,0,0,1,2.881,1.007c.591-.582,1.238-1,1.36-.878.1.1-.131.493-.579.973A2.221,2.221,0,0,0,2.9,3.043c.029.565.083.774.247.954a1.449,1.449,0,0,1,.282.479A6.233,6.233,0,0,0,3.9,5.4a3.459,3.459,0,0,1,.569,1.987c0,.438.021.471.228.429.9-.183,1.052-.167,1.414.151a2.444,2.444,0,0,1,.507,2.4c-.067.152-.019.174.381.174a1.061,1.061,0,0,1,.881.373c.6.529.586.495.544,1.343-.04.814.008.893.386.629.167-.117.583-.132,2.335-.088,4.4.112,4.76.082,6.081-.511,1.259-.564,2.217-2.235,1.875-3.272-.141-.428-.469-.862-.651-.862-.11,0-.107.069.016.381a.741.741,0,0,1,0,.75,1.185,1.185,0,0,1-1.058.66,1.6,1.6,0,0,1-1.291-1.366A1.677,1.677,0,0,1,17.279,6.9a2.335,2.335,0,0,1,3.1,1.657,2.3,2.3,0,0,1,.083,1.487A5.12,5.12,0,0,1,20.2,11.14a10.648,10.648,0,0,1-2.456,2.648A18.8,18.8,0,0,1,14,15.626a16.9,16.9,0,0,1-3.864.831,2.1,2.1,0,0,0-1.076.14,5,5,0,0,0,1.29.92,7.959,7.959,0,0,1,.836.507,1.9,1.9,0,0,0,.476.278,5,5,0,0,1,.764.383,8.494,8.494,0,0,0,1.116.533l.788.269c.191.065.661.2,1.044.3a6.317,6.317,0,0,1,.995.342,1.416,1.416,0,0,0,.529.158,9.662,9.662,0,0,1,1.07.166,3.4,3.4,0,0,0,.9.108c.031-.031-.015-.167-.1-.3a2.144,2.144,0,0,1-.219-.743,2.033,2.033,0,0,1,.791-1.78,2.73,2.73,0,0,1,3.011.214,2.855,2.855,0,0,1,.494,1.9,1.108,1.108,0,0,0,.017.57c.045.028,1.223.076,2.617.106,10.09.221,9.547.24,9.547-.333a1.138,1.138,0,0,1,.745-.923,2.488,2.488,0,0,1,1.353.545,2.838,2.838,0,0,0,.553.357c.373.19.583.205,2.959.213l2.558.008-.667-.624a9.078,9.078,0,0,0-.933-.786,3.061,3.061,0,0,1-.649-.746,6.4,6.4,0,0,0-.57-.767c-.1-.1-.615-.72-1.136-1.376s-1.023-1.268-1.115-1.36a4.963,4.963,0,0,1-.411-.514,9.058,9.058,0,0,0-.633-.765,14.4,14.4,0,0,1-1.282-1.492l-.3-.419-.838.816a8.446,8.446,0,0,0-.936,1.015c-.242.493-1.449,2.459-1.657,2.7a2.044,2.044,0,0,1-.508.379c-.378.2-.609.083-.609-.3s-.2-.384-.522.005a3.88,3.88,0,0,1-1.309.849,5.763,5.763,0,0,0-1.177.686c-.22.262-.336.262-.405,0A3.962,3.962,0,0,1,28.1,15.43c.151-.228.25-.439.22-.469a2.365,2.365,0,0,0-.736.106,13.819,13.819,0,0,1-4.51.6c-1.782,0-1.858,0-2.4-.257-1.446-.678-1.857-1.847-1.008-2.863a.889.889,0,0,1,.824-.379c.747-.055,1.188.211,1.188.719,0,.489-.238,1.01-.5,1.093-.306.1-.145.213.544.392,1.647.429,3.674,0,7.265-1.531a9.049,9.049,0,0,0,1.144-.551,1.3,1.3,0,0,1,.4-.2,2.988,2.988,0,0,0,.547-.249c.164-.1.891-.477,1.616-.845s1.318-.689,1.318-.712a11,11,0,0,0-1.316-1.2c-.2-.153-.631-.491-.958-.75a4.535,4.535,0,0,0-.662-.472,1.128,1.128,0,0,1-.319-.2c-.341-.268-.425-.251-.425.087a2.409,2.409,0,0,1-.7,1.443A1.658,1.658,0,0,1,29,9.5,2.364,2.364,0,0,1,27.3,8.927c-.219-.26-.254-.271-.464-.139a3.265,3.265,0,0,1-.87.252c-.564.1-.686.087-.995-.072a1.919,1.919,0,0,1-.948-1.482c0-.416-.1-.557-.21-.283-.089.233-.606.388-1.076.324-1.12-.154-1.507-.637-1.425-1.781l.049-.688L21.1,5.14a4.2,4.2,0,0,1-2.105-.149,4.492,4.492,0,0,1-1.343-.773A3.478,3.478,0,0,0,14.66,3.17c-1.513.258-2.175.235-1.8-.063a16.356,16.356,0,0,1,3.4-1.065,19.052,19.052,0,0,1,6.7.386,17.849,17.849,0,0,1,2.678.752c.094.052.8.379,1.568.728a23.676,23.676,0,0,1,6.908,4.606l1.045,1,.4-.277a24.873,24.873,0,0,1,3.432-1.684,2.453,2.453,0,0,0,.5-.245,13.625,13.625,0,0,1,2.345-.986L42.79,6l-.517-.169a3.078,3.078,0,0,1-.631-.264,4.754,4.754,0,0,0-2.55-1.331A4.086,4.086,0,0,1,38.165,4a2.79,2.79,0,0,0-.814-.162c-1.007-.1-1.044-.116-1.044-.506,0-.312.028-.342.373-.4.205-.035.944-.171,1.642-.3s1.383-.24,1.523-.24a1.115,1.115,0,0,0,.442-.1,39.929,39.929,0,0,1,7.458.242,12.077,12.077,0,0,1,2.712.512c.206.078.385.142.4.142a2.692,2.692,0,0,0,.023-.492.931.931,0,0,1,.345-.848A1.774,1.774,0,0,1,53.1,1.384a4.462,4.462,0,0,1,2.559,1.377A6.872,6.872,0,0,1,57.436,5.2a2.832,2.832,0,0,0,1.392,1.608,21.068,21.068,0,0,1,5.944,7.067l.122.3.031-.348a18.117,18.117,0,0,1,.7-2.933,21.234,21.234,0,0,0,1.117-3.61,6.683,6.683,0,0,0-.231-4.05,3.677,3.677,0,0,0-.743-.815,1.322,1.322,0,0,0-1.194-.429,2.048,2.048,0,0,0-1.136.249c-.531.283-.874.321-.874.1a4.606,4.606,0,0,1,.871-1.7A2.182,2.182,0,0,1,65.328,0c1.249,0,1.7.2,2.17.973.15.247.224.3.265.2A1.658,1.658,0,0,1,68.29.748.988.988,0,0,1,69.318.6a1.735,1.735,0,0,1,1.018.585,1.9,1.9,0,0,1-.482,3.191.9.9,0,0,1-.771-.028l-.451-.154,0,.367a18.6,18.6,0,0,1-.583,3.081c-.286.534-.063.4.347-.216a17.363,17.363,0,0,1,2.65-2.776A25.146,25.146,0,0,1,73.93,2.735l.571-.3.571.3a25.145,25.145,0,0,1,2.886,1.911,17.362,17.362,0,0,1,2.65,2.776c.41.611.632.749.347.216a18.6,18.6,0,0,1-.583-3.081l0-.367-.451.154a1.223,1.223,0,0,1-1.4-.39C77.451,2.96,78.155.936,79.684.6a.988.988,0,0,1,1.028.152,1.658,1.658,0,0,1,.527.422c.04.105.115.05.265-.2C81.972.2,82.425,0,83.674,0a2.182,2.182,0,0,1,1.892.636,4.607,4.607,0,0,1,.871,1.7c0,.224-.343.186-.874-.1a2.048,2.048,0,0,0-1.136-.249,1.322,1.322,0,0,0-1.194.429,3.677,3.677,0,0,0-.743.815,6.683,6.683,0,0,0-.231,4.05,21.233,21.233,0,0,0,1.117,3.61,18.117,18.117,0,0,1,.7,2.933l.031.348.122-.3a21.068,21.068,0,0,1,5.944-7.067A2.832,2.832,0,0,0,91.567,5.2a6.872,6.872,0,0,1,1.778-2.439A4.462,4.462,0,0,1,95.9,1.384a1.774,1.774,0,0,1,1.875.459.931.931,0,0,1,.345.848,2.688,2.688,0,0,0,.023.492c.013,0,.192-.064.4-.142a12.077,12.077,0,0,1,2.712-.512,39.929,39.929,0,0,1,7.458-.242,1.115,1.115,0,0,0,.442.1c.14,0,.826.108,1.523.24s1.437.268,1.642.3c.345.058.373.088.373.4,0,.389-.037.407-1.044.506a2.79,2.79,0,0,0-.814.162,4.086,4.086,0,0,1-.928.236,4.754,4.754,0,0,0-2.55,1.331,3.078,3.078,0,0,1-.631.264L106.212,6l.956.329a13.625,13.625,0,0,1,2.345.986,2.453,2.453,0,0,0,.5.245,24.872,24.872,0,0,1,3.432,1.684l.4.277,1.045-1a23.676,23.676,0,0,1,6.908-4.606c.768-.349,1.474-.676,1.568-.728a17.849,17.849,0,0,1,2.678-.752,19.052,19.052,0,0,1,6.7-.386,16.356,16.356,0,0,1,3.4,1.065c.373.3-.29.321-1.8.063a3.478,3.478,0,0,0-2.992,1.048,4.492,4.492,0,0,1-1.343.773,4.2,4.2,0,0,1-2.105.149l-.261-.082.049.688c.082,1.144-.3,1.627-1.425,1.781-.47.064-.987-.091-1.076-.324-.105-.274-.209-.134-.21.283a1.919,1.919,0,0,1-.948,1.482c-.308.159-.431.168-.995.072a3.265,3.265,0,0,1-.87-.252c-.209-.132-.245-.121-.464.139A2.364,2.364,0,0,1,120,9.5a1.658,1.658,0,0,1-.633-.315,2.409,2.409,0,0,1-.7-1.443c0-.338-.085-.355-.425-.087a1.128,1.128,0,0,1-.319.2,4.534,4.534,0,0,0-.662.472c-.327.26-.759.6-.958.75a11,11,0,0,0-1.316,1.2c0,.024.593.344,1.318.712s1.452.748,1.616.845a2.988,2.988,0,0,0,.547.249,1.3,1.3,0,0,1,.4.2,9.048,9.048,0,0,0,1.144.551c3.591,1.532,5.618,1.96,7.265,1.531.689-.179.85-.3.544-.392-.261-.083-.5-.6-.5-1.093,0-.508.44-.774,1.188-.719a.889.889,0,0,1,.824.379c.849,1.016.437,2.185-1.008,2.863-.538.252-.614.26-2.4.257a13.819,13.819,0,0,1-4.51-.6,2.365,2.365,0,0,0-.736-.106c-.03.03.069.241.22.469a3.962,3.962,0,0,1,.582,2.265c-.069.264-.186.264-.405,0a5.763,5.763,0,0,0-1.177-.686,3.88,3.88,0,0,1-1.309-.849c-.321-.389-.522-.391-.522-.005s-.23.494-.609.3a2.045,2.045,0,0,1-.508-.379c-.207-.239-1.414-2.2-1.657-2.7a8.446,8.446,0,0,0-.936-1.015l-.838-.816-.3.419a14.4,14.4,0,0,1-1.282,1.492,9.056,9.056,0,0,0-.633.765,4.964,4.964,0,0,1-.411.514c-.092.092-.594.7-1.115,1.36s-1.032,1.275-1.136,1.376a6.4,6.4,0,0,0-.57.767,3.061,3.061,0,0,1-.649.746,9.078,9.078,0,0,0-.933.786l-.667.624,2.558-.008c2.376-.008,2.587-.023,2.959-.213a2.838,2.838,0,0,0,.553-.357,2.488,2.488,0,0,1,1.353-.545,1.138,1.138,0,0,1,.745.924c0,.573-.543.554,9.547.333,1.394-.031,2.572-.078,2.617-.106a1.108,1.108,0,0,0,.017-.57,2.855,2.855,0,0,1,.494-1.9,2.73,2.73,0,0,1,3.011-.214,2.033,2.033,0,0,1,.791,1.78,2.144,2.144,0,0,1-.219.743c-.088.135-.135.27-.1.3a3.4,3.4,0,0,0,.9-.108,9.672,9.672,0,0,1,1.07-.166,1.416,1.416,0,0,0,.529-.158,6.318,6.318,0,0,1,.995-.342c.383-.1.853-.238,1.044-.3l.788-.269a8.494,8.494,0,0,0,1.116-.533,5,5,0,0,1,.764-.383,1.9,1.9,0,0,0,.476-.278,7.959,7.959,0,0,1,.836-.507,5,5,0,0,0,1.29-.92,2.1,2.1,0,0,0-1.076-.14,16.9,16.9,0,0,1-3.864-.831,18.8,18.8,0,0,1-3.744-1.838,10.648,10.648,0,0,1-2.456-2.648,5.12,5.12,0,0,1-.262-1.094,2.3,2.3,0,0,1,.083-1.487,2.335,2.335,0,0,1,3.1-1.657,1.677,1.677,0,0,1,1.164,1.679A1.6,1.6,0,0,1,131.6,9.947a1.185,1.185,0,0,1-1.058-.66.74.74,0,0,1,0-.75c.123-.312.125-.381.015-.381-.182,0-.51.434-.651.862-.342,1.036.616,2.707,1.875,3.272,1.321.592,1.684.623,6.081.511,1.752-.045,2.168-.029,2.335.088.378.265.426.186.386-.629-.042-.848-.056-.814.544-1.343a1.061,1.061,0,0,1,.881-.373c.4,0,.448-.022.381-.174a2.444,2.444,0,0,1,.507-2.4c.362-.318.512-.334,1.414-.151.207.042.224.009.228-.429A3.459,3.459,0,0,1,145.1,5.4a6.235,6.235,0,0,0,.473-.925A1.449,1.449,0,0,1,145.853,4c.165-.18.219-.389.247-.954A2.221,2.221,0,0,0,145.34,1.1c-.447-.48-.68-.871-.579-.973.122-.122.769.3,1.36.878A6.6,6.6,0,0,1,147.7,3.746a4.983,4.983,0,0,1,.31,2.19,7.617,7.617,0,0,1-.307,2.471,14.208,14.208,0,0,1-.5,1.609,3.128,3.128,0,0,0-.19.481,19.644,19.644,0,0,1-2.118,3.926,16.674,16.674,0,0,1-4.606,4.037c-.377.2-1,.544-1.382.755a32.778,32.778,0,0,1-3.183,1.524c-.372.143-.258.149,1.741.1,6.173-.154,6.671-.188,7.153-.492a1.267,1.267,0,0,0,.489-.546c.1-.286.138-.3.609-.3.75,0,.976.292.9,1.171-.018.223,0,.226.9.2l.92-.028.085.323a1.488,1.488,0,0,1,0,.647l-.085.323-.92-.028c-.9-.027-.919-.024-.9.2.072.879-.154,1.171-.9,1.171-.471,0-.509-.019-.609-.3a1.267,1.267,0,0,0-.489-.546c-.482-.3-.98-.338-7.153-.492-2-.05-2.112-.043-1.741.1a32.779,32.779,0,0,1,3.183,1.524c.383.212,1,.552,1.382.755a16.674,16.674,0,0,1,4.606,4.037,19.644,19.644,0,0,1,2.118,3.926,3.128,3.128,0,0,0,.19.481,14.209,14.209,0,0,1,.5,1.609,7.618,7.618,0,0,1,.307,2.471,4.983,4.983,0,0,1-.31,2.19,6.6,6.6,0,0,1-1.575,2.739c-.591.582-1.238,1-1.36.878-.1-.1.131-.493.579-.973a2.221,2.221,0,0,0,.761-1.941c-.029-.565-.083-.774-.247-.954a1.449,1.449,0,0,1-.282-.479,6.235,6.235,0,0,0-.473-.925,3.459,3.459,0,0,1-.569-1.987c0-.438-.021-.471-.228-.429-.9.183-1.052.167-1.414-.151a2.444,2.444,0,0,1-.507-2.4c.067-.152.019-.174-.381-.174a1.061,1.061,0,0,1-.881-.373c-.6-.529-.586-.495-.544-1.343.04-.814-.008-.893-.386-.629-.167.117-.583.132-2.335.088-4.4-.112-4.76-.082-6.081.511-1.259.564-2.217,2.235-1.875,3.272.141.428.469.862.651.862.11,0,.107-.069-.016-.381a.741.741,0,0,1,0-.75,1.185,1.185,0,0,1,1.058-.66,1.6,1.6,0,0,1,1.291,1.366,1.677,1.677,0,0,1-1.164,1.679,2.335,2.335,0,0,1-3.1-1.657,2.3,2.3,0,0,1-.083-1.487,5.12,5.12,0,0,1,.262-1.094,10.647,10.647,0,0,1,2.456-2.648,18.8,18.8,0,0,1,3.744-1.838,16.9,16.9,0,0,1,3.864-.831,2.1,2.1,0,0,0,1.076-.14,5.005,5.005,0,0,0-1.29-.92,7.959,7.959,0,0,1-.836-.507,1.9,1.9,0,0,0-.476-.278,5,5,0,0,1-.764-.383,8.495,8.495,0,0,0-1.116-.533l-.788-.269c-.191-.065-.661-.2-1.044-.3a6.317,6.317,0,0,1-.995-.342,1.416,1.416,0,0,0-.529-.158,9.662,9.662,0,0,1-1.07-.166,3.4,3.4,0,0,0-.9-.108c-.031.031.015.167.1.3a2.144,2.144,0,0,1,.219.743,2.033,2.033,0,0,1-.791,1.78,2.73,2.73,0,0,1-3.011-.214,2.855,2.855,0,0,1-.494-1.9,1.108,1.108,0,0,0-.017-.57c-.045-.028-1.223-.076-2.617-.106-10.091-.221-9.547-.24-9.547.333a1.138,1.138,0,0,1-.745.923,2.488,2.488,0,0,1-1.353-.545,2.837,2.837,0,0,0-.553-.357c-.373-.19-.583-.205-2.959-.213l-2.558-.008.667.624a9.079,9.079,0,0,0,.933.786,3.061,3.061,0,0,1,.649.746,6.4,6.4,0,0,0,.57.767c.1.1.615.72,1.136,1.376s1.023,1.268,1.115,1.36a4.963,4.963,0,0,1,.411.514,9.058,9.058,0,0,0,.633.765A14.4,14.4,0,0,1,113.216,31l.3.419.838-.816a8.446,8.446,0,0,0,.936-1.015c.242-.493,1.449-2.459,1.657-2.7a2.044,2.044,0,0,1,.508-.379c.378-.2.609-.083.609.3s.2.384.522-.005a3.88,3.88,0,0,1,1.309-.849,5.763,5.763,0,0,0,1.177-.686c.22-.262.336-.262.405,0a3.962,3.962,0,0,1-.582,2.265c-.151.228-.25.439-.22.469a2.365,2.365,0,0,0,.736-.106,13.819,13.819,0,0,1,4.51-.6c1.782,0,1.858,0,2.4.257,1.446.678,1.857,1.847,1.008,2.863a.889.889,0,0,1-.824.379c-.747.055-1.188-.211-1.188-.719,0-.489.238-1.01.5-1.093.306-.1.145-.213-.544-.392-1.646-.429-3.674,0-7.265,1.531a9.048,9.048,0,0,0-1.144.551,1.3,1.3,0,0,1-.4.2,2.989,2.989,0,0,0-.547.249c-.164.1-.891.477-1.616.845s-1.318.689-1.318.712a11,11,0,0,0,1.316,1.2c.2.153.631.491.958.75a4.533,4.533,0,0,0,.662.472,1.128,1.128,0,0,1,.319.2c.341.268.425.251.425-.087a2.409,2.409,0,0,1,.7-1.443,1.658,1.658,0,0,1,.633-.315,2.364,2.364,0,0,1,1.706.577c.219.26.254.271.464.139a3.266,3.266,0,0,1,.87-.252c.564-.1.686-.087.995.072a1.919,1.919,0,0,1,.948,1.482c0,.416.1.557.21.283.089-.233.606-.388,1.076-.324,1.12.154,1.507.637,1.425,1.781l-.049.688.261-.082a4.2,4.2,0,0,1,2.105.149,4.492,4.492,0,0,1,1.343.773,3.478,3.478,0,0,0,2.992,1.048c1.513-.258,2.175-.235,1.8.063a16.356,16.356,0,0,1-3.4,1.065,19.052,19.052,0,0,1-6.7-.386,17.848,17.848,0,0,1-2.678-.752c-.094-.052-.8-.379-1.568-.728a23.676,23.676,0,0,1-6.908-4.606l-1.045-1-.4.277a24.873,24.873,0,0,1-3.432,1.684,2.453,2.453,0,0,0-.5.245,13.625,13.625,0,0,1-2.345.986l-.956.329.517.169a3.078,3.078,0,0,1,.631.264,4.754,4.754,0,0,0,2.55,1.331,4.086,4.086,0,0,1,.928.236,2.79,2.79,0,0,0,.814.162c1.007.1,1.044.116,1.044.506,0,.312-.028.342-.373.4-.205.035-.944.171-1.642.3s-1.383.24-1.523.24a1.115,1.115,0,0,0-.442.1,39.929,39.929,0,0,1-7.458-.242,12.077,12.077,0,0,1-2.712-.512c-.206-.078-.385-.142-.4-.142a2.692,2.692,0,0,0-.023.492.931.931,0,0,1-.345.848,1.774,1.774,0,0,1-1.875.459,4.462,4.462,0,0,1-2.559-1.377,6.873,6.873,0,0,1-1.778-2.439,2.832,2.832,0,0,0-1.392-1.608,21.068,21.068,0,0,1-5.944-7.067l-.122-.3-.031.348a18.117,18.117,0,0,1-.7,2.933,21.234,21.234,0,0,0-1.117,3.61,6.683,6.683,0,0,0,.231,4.05,3.677,3.677,0,0,0,.743.815,1.322,1.322,0,0,0,1.194.429,2.048,2.048,0,0,0,1.136-.249c.531-.283.874-.321.874-.1a4.606,4.606,0,0,1-.871,1.7,2.182,2.182,0,0,1-1.892.636c-1.249,0-1.7-.2-2.17-.973-.15-.247-.224-.3-.265-.2a1.658,1.658,0,0,1-.527.422.988.988,0,0,1-1.028.152,1.735,1.735,0,0,1-1.018-.585,1.9,1.9,0,0,1,.482-3.191.9.9,0,0,1,.771.028l.451.154,0-.367a18.6,18.6,0,0,1,.583-3.081c.286-.534.063-.4-.347.216a17.362,17.362,0,0,1-2.65,2.776,25.145,25.145,0,0,1-2.886,1.911l-.571.3-.571-.3a25.145,25.145,0,0,1-2.886-1.911,17.362,17.362,0,0,1-2.65-2.776c-.41-.611-.632-.749-.347-.216a18.6,18.6,0,0,1,.583,3.081l0,.367.451-.154a1.223,1.223,0,0,1,1.4.39c1.064.994.359,3.017-1.169,3.357a.988.988,0,0,1-1.028-.152,1.658,1.658,0,0,1-.527-.422c-.04-.105-.115-.05-.265.2a1.622,1.622,0,0,1-.9.817,4.9,4.9,0,0,1-2.523-.012ZM53.4,40.156a4.382,4.382,0,0,0,.783-.514,6.026,6.026,0,0,0,1.377-1.627c-.027-.027-.218.061-.424.194a9.225,9.225,0,0,1-2.074.88c-.129,0-.147.055-.085.274a2.209,2.209,0,0,1,.061.6c-.02.371-.035.363.362.2Zm42.573-.2a2.209,2.209,0,0,1,.061-.6c.062-.218.045-.274-.085-.274a9.228,9.228,0,0,1-2.074-.88c-.206-.134-.4-.221-.424-.194a6.027,6.027,0,0,0,1.38,1.629,3.025,3.025,0,0,0,1.085.631c.041,0,.067-.137.058-.315ZM71.816,36.094a2.862,2.862,0,0,1,1.113-1.583c.388-.222.538-.245,1.573-.245s1.185.024,1.573.245a2.862,2.862,0,0,1,1.113,1.583c0,.116.021.211.048.211a8.388,8.388,0,0,0,1.9-1.6,12.341,12.341,0,0,0,2.839-4.97,5.654,5.654,0,0,0,.159-2.029,6.144,6.144,0,0,0-.827-3.053c-.293-.579-.382-.59-.224-.028a6.29,6.29,0,0,1,.117,1.238,5.8,5.8,0,0,1-1.981,4.229,5.4,5.4,0,0,1-1.492,1.13c-.378.183-.766.372-.861.421-.228.117-.673.114-.673,0,0-.052.1-.164.221-.249a3.2,3.2,0,0,0,.979-1.371,5.4,5.4,0,0,0-.263-2.364c-.281-1.282-.015-3.043.521-3.451.127-.1.066-.118-.333-.115-.737.006-1.138-.218-2.016-1.127l-.8-.827-.8.827c-.878.909-1.279,1.133-2.016,1.127-.4,0-.461.018-.333.115.536.408.8,2.169.521,3.451a5.4,5.4,0,0,0-.263,2.364,3.2,3.2,0,0,0,.979,1.371c.122.085.221.2.221.249,0,.119-.445.122-.673,0-.095-.049-.482-.238-.861-.421a5.4,5.4,0,0,1-1.492-1.13A5.8,5.8,0,0,1,67.8,25.861a6.29,6.29,0,0,1,.117-1.238c.158-.562.069-.551-.224.028a6.144,6.144,0,0,0-.827,3.053,5.654,5.654,0,0,0,.159,2.029,12.339,12.339,0,0,0,2.82,4.947A8.5,8.5,0,0,0,71.741,36.3c.041,0,.075-.088.075-.2ZM54.829,34.841a4.672,4.672,0,0,1,.847-.321c1.213-.37,1.161-.262,1.193-2.506a35.124,35.124,0,0,1,.375-5.606,4.886,4.886,0,0,1,1.467-2.5c.4-.381.855-.79,1.019-.909l.3-.217-.845-.007c-.465,0-2.188-.047-3.828-.1s-2.992-.08-3-.069a5.84,5.84,0,0,0,.628.515,6.03,6.03,0,0,1,2.618,4,4.521,4.521,0,0,1-.4,2.582c-.325.783-.614.794-.747.03a2.552,2.552,0,0,0-.445-1.3.664.664,0,0,1-.194-.291c0-.054-.112-.126-.249-.16s-.249-.125-.249-.2-.04-.138-.089-.138a1.2,1.2,0,0,1-.382-.257,5.305,5.305,0,0,0-1-.581,6.6,6.6,0,0,1-.886-.465,4.168,4.168,0,0,0-.564-.339,2.9,2.9,0,0,1-1.113-1.317c-.057-.211-.238-.319-.238-.141A5.255,5.255,0,0,1,47.409,26.4c-1.425,1.172-2.151,2.2-2.151,3.048,0,.466-.232.358-.637-.3a4.513,4.513,0,0,1-.048-4.562,1.74,1.74,0,0,0,.255-.578,1.971,1.971,0,0,0-.578.383c-.293.236-.69.545-.881.688a47.707,47.707,0,0,0-3.533,3.52c-.163.219-.431.539-.6.711s-.477.523-.7.78A9.275,9.275,0,0,1,36.82,31.9l-.35.218.788.375a5.5,5.5,0,0,1,.847.459,29.987,29.987,0,0,0,3.72,1.467c.383.1.853.237,1.044.293a3.807,3.807,0,0,0,.395.1,4.013,4.013,0,0,0-.507-.572,6.037,6.037,0,0,1-1.293-1.915A3.108,3.108,0,0,1,41.1,30.6a2.726,2.726,0,0,1,.617-2.279c.35-.445.459-.468.459-.1a3.425,3.425,0,0,0,.333.97,3.546,3.546,0,0,0,2.651,2.131,3.057,3.057,0,0,1,2.252,1.095c.192.325.335.392.335.156,0-.26.583-.819,1.069-1.024a4.736,4.736,0,0,1,1.123-.267c.632-.065.662-.057,1.1.275A2.306,2.306,0,0,1,52.1,33.375a1.455,1.455,0,0,1-.167,1.048l-.22.391.231.1a10.706,10.706,0,0,0,2.888-.071Zm42.211.068.252-.1-.22-.391a1.455,1.455,0,0,1-.167-1.048,2.306,2.306,0,0,1,1.064-1.812c.435-.332.465-.34,1.1-.275a4.736,4.736,0,0,1,1.123.267c.485.205,1.069.764,1.069,1.024,0,.235.143.168.335-.156a3.057,3.057,0,0,1,2.252-1.095,3.546,3.546,0,0,0,2.651-2.131,3.425,3.425,0,0,0,.333-.97c0-.371.109-.348.459.1A2.726,2.726,0,0,1,107.9,30.6a3.108,3.108,0,0,1-.367,1.724,6.037,6.037,0,0,1-1.293,1.915,4.015,4.015,0,0,0-.507.572,3.807,3.807,0,0,0,.395-.1c.191-.056.661-.188,1.044-.293a29.984,29.984,0,0,0,3.72-1.467,5.5,5.5,0,0,1,.847-.459l.788-.375-.35-.218a9.275,9.275,0,0,1-1.724-1.811c-.219-.257-.532-.608-.7-.78s-.432-.492-.6-.711a47.706,47.706,0,0,0-3.533-3.52c-.191-.143-.588-.453-.881-.688a1.971,1.971,0,0,0-.578-.383,1.74,1.74,0,0,0,.255.578,4.513,4.513,0,0,1-.048,4.562c-.405.656-.637.765-.637.3,0-.847-.726-1.876-2.151-3.048a5.257,5.257,0,0,1-1.629-1.845c0-.177-.181-.07-.238.141a2.9,2.9,0,0,1-1.113,1.317,4.168,4.168,0,0,0-.564.339,6.606,6.606,0,0,1-.886.465,5.3,5.3,0,0,0-1,.581,1.2,1.2,0,0,1-.382.257c-.049,0-.089.062-.089.138s-.112.167-.249.2-.249.106-.249.16a.665.665,0,0,1-.194.291,2.553,2.553,0,0,0-.445,1.3c-.133.765-.422.753-.747-.03a4.521,4.521,0,0,1-.4-2.582,6.03,6.03,0,0,1,2.618-4,5.84,5.84,0,0,0,.628-.515c-.011-.011-1.362.02-3,.069s-3.363.092-3.828.1l-.845.007.3.217c.164.119.623.528,1.019.909a4.886,4.886,0,0,1,1.467,2.5,35.123,35.123,0,0,1,.375,5.606c.032,2.244-.019,2.136,1.193,2.506a5.38,5.38,0,0,1,.819.3,8.157,8.157,0,0,0,2.894.092ZM60.725,31.944a20.9,20.9,0,0,0,1.84-2.034c0-.024.28-.531.622-1.126s.775-1.418.961-1.828a19.765,19.765,0,0,1,1.645-3.208c.353-.46.356-.472.128-.472a8.356,8.356,0,0,0-3.108,1.1c-.038.062.023.21.135.33a2.2,2.2,0,0,1-.626,3.32,1.957,1.957,0,0,1-2.293-.548,1.048,1.048,0,0,0-.258-.315,9.853,9.853,0,0,0-.685,2.582c-.194,1.607-.4,3.474-.4,3.629,0,.208,1.24-.659,2.039-1.426Zm29.449.016a19.226,19.226,0,0,0-.623-3.935,3.862,3.862,0,0,0-.32-.866,1.048,1.048,0,0,0-.258.315,1.957,1.957,0,0,1-2.293.548,2.2,2.2,0,0,1-.626-3.32c.113-.12.173-.268.135-.33a8.354,8.354,0,0,0-3.108-1.1c-.228,0-.225.012.128.472a19.765,19.765,0,0,1,1.645,3.208c.187.41.619,1.233.961,1.828s.622,1.1.622,1.126a20.888,20.888,0,0,0,1.84,2.034A10.641,10.641,0,0,0,90.3,33.465c.019-.017-.038-.695-.128-1.505ZM75.333,19.987c.837-.882,1.246-1.11,1.983-1.1.4,0,.461-.018.333-.115-.536-.408-.8-2.169-.521-3.451a5.4,5.4,0,0,0,.263-2.364,3.2,3.2,0,0,0-.979-1.371c-.122-.085-.221-.2-.221-.249,0-.119.445-.122.673,0,.095.049.482.238.861.421a5.4,5.4,0,0,1,1.492,1.13A5.8,5.8,0,0,1,81.2,17.108a6.29,6.29,0,0,1-.117,1.238c-.158.562-.069.551.224-.028a6.144,6.144,0,0,0,.827-3.053,5.654,5.654,0,0,0-.159-2.029,12.341,12.341,0,0,0-2.839-4.97,8.389,8.389,0,0,0-1.9-1.6c-.026,0-.048.095-.048.211a2.862,2.862,0,0,1-1.113,1.583c-.388.222-.539.245-1.573.245s-1.185-.024-1.573-.245a2.862,2.862,0,0,1-1.113-1.583c0-.116-.021-.211-.048-.211a8.388,8.388,0,0,0-1.9,1.6,12.341,12.341,0,0,0-2.839,4.97,5.654,5.654,0,0,0-.159,2.029,6.144,6.144,0,0,0,.827,3.053c.293.579.382.59.224.028a6.29,6.29,0,0,1-.117-1.238,5.8,5.8,0,0,1,1.981-4.229,5.4,5.4,0,0,1,1.492-1.13c.378-.183.766-.372.861-.421.228-.117.673-.114.673,0,0,.052-.1.164-.221.249a3.2,3.2,0,0,0-.979,1.371,5.4,5.4,0,0,0,.263,2.364c.281,1.282.015,3.043-.521,3.451-.127.1-.066.118.333.115.737-.006,1.146.222,1.983,1.1a6.963,6.963,0,0,0,.832.8,6.963,6.963,0,0,0,.832-.8Zm-18.1.244,2.78-.063-.293-.208c-.161-.114-.618-.519-1.014-.9a4.886,4.886,0,0,1-1.467-2.5,35.123,35.123,0,0,1-.375-5.606c-.032-2.244.019-2.136-1.193-2.506a4.689,4.689,0,0,1-.846-.32,9.653,9.653,0,0,0-2.839-.08l-.28.107.22.391A1.455,1.455,0,0,1,52.1,9.595a2.306,2.306,0,0,1-1.064,1.812c-.435.332-.465.34-1.1.275a4.736,4.736,0,0,1-1.123-.267c-.485-.205-1.069-.764-1.069-1.024,0-.235-.143-.168-.335.156a3.057,3.057,0,0,1-2.252,1.095,3.546,3.546,0,0,0-2.651,2.131,3.425,3.425,0,0,0-.333.97c0,.371-.109.348-.459-.1a2.726,2.726,0,0,1-.617-2.279,3.108,3.108,0,0,1,.367-1.724,6.037,6.037,0,0,1,1.293-1.915,4.013,4.013,0,0,0,.507-.572,3.806,3.806,0,0,0-.395.1c-.191.056-.661.188-1.044.293a29.985,29.985,0,0,0-3.72,1.467,5.5,5.5,0,0,1-.847.459l-.788.375.35.218a9.275,9.275,0,0,1,1.724,1.811c.219.257.532.608.7.78s.432.492.6.711a47.706,47.706,0,0,0,3.533,3.52c.191.143.588.453.881.688a1.971,1.971,0,0,0,.578.383,1.74,1.74,0,0,0-.255-.578,4.513,4.513,0,0,1,.048-4.562c.405-.656.637-.765.637-.3,0,.847.726,1.876,2.151,3.048a5.255,5.255,0,0,1,1.629,1.845c0,.177.181.07.238-.141a2.9,2.9,0,0,1,1.113-1.317,4.168,4.168,0,0,0,.564-.339,6.605,6.605,0,0,1,.886-.465,5.3,5.3,0,0,0,1-.581,1.2,1.2,0,0,1,.382-.257c.049,0,.089-.062.089-.138s.112-.167.249-.2.249-.106.249-.16a.665.665,0,0,1,.194-.291,2.553,2.553,0,0,0,.445-1.3c.133-.765.422-.753.747.03a4.521,4.521,0,0,1,.4,2.582,6.023,6.023,0,0,1-2.623,4,6.756,6.756,0,0,0-.654.533,8.042,8.042,0,0,0,1.068-.023c.588-.032,2.32-.087,3.849-.122Zm39.443.134c0-.014-.295-.249-.654-.522a6.023,6.023,0,0,1-2.623-4,4.521,4.521,0,0,1,.4-2.582c.325-.783.614-.794.747-.03a2.552,2.552,0,0,0,.445,1.3.665.665,0,0,1,.194.291c0,.054.112.126.249.16s.249.125.249.2.04.138.089.138a1.2,1.2,0,0,1,.382.257,5.3,5.3,0,0,0,1,.581,6.6,6.6,0,0,1,.886.465,4.168,4.168,0,0,0,.564.339,2.9,2.9,0,0,1,1.113,1.317c.057.211.238.319.238.141a5.255,5.255,0,0,1,1.629-1.845c1.425-1.172,2.151-2.2,2.151-3.048,0-.466.232-.358.637.3a4.513,4.513,0,0,1,.048,4.562,1.74,1.74,0,0,0-.255.578,1.971,1.971,0,0,0,.578-.383c.293-.236.69-.545.881-.688a47.708,47.708,0,0,0,3.533-3.52c.163-.219.431-.539.6-.711s.477-.523.7-.78a9.275,9.275,0,0,1,1.724-1.811l.35-.218-.788-.375a5.5,5.5,0,0,1-.847-.459,29.987,29.987,0,0,0-3.72-1.467c-.383-.1-.853-.237-1.044-.293a3.79,3.79,0,0,0-.395-.1,4.014,4.014,0,0,0,.507.572,6.037,6.037,0,0,1,1.293,1.915,3.108,3.108,0,0,1,.367,1.724,2.726,2.726,0,0,1-.617,2.279c-.35.445-.459.468-.459.1a3.425,3.425,0,0,0-.333-.97,3.546,3.546,0,0,0-2.651-2.131,3.057,3.057,0,0,1-2.252-1.095c-.192-.325-.335-.392-.335-.156,0,.26-.583.819-1.069,1.024a4.736,4.736,0,0,1-1.123.267c-.632.065-.662.057-1.1-.275a2.306,2.306,0,0,1-1.064-1.812,1.455,1.455,0,0,1,.167-1.048l.22-.391-.28-.107a9.653,9.653,0,0,0-2.839.08,4.689,4.689,0,0,1-.846.32c-1.213.37-1.161.262-1.193,2.506a35.124,35.124,0,0,1-.375,5.606,4.886,4.886,0,0,1-1.467,2.5c-.4.381-.855.79-1.019.909l-.3.217,1.094.016c.926.014,4.261.107,6.092.171a2.752,2.752,0,0,0,.521-.007ZM65.793,19.222a19.766,19.766,0,0,1-1.645-3.208c-.187-.41-.619-1.233-.961-1.828s-.622-1.1-.622-1.126a20.9,20.9,0,0,0-1.84-2.034c-.8-.767-2.039-1.634-2.039-1.426,0,.155.206,2.022.4,3.629a9.85,9.85,0,0,0,.685,2.582,1.048,1.048,0,0,0,.258-.315,1.957,1.957,0,0,1,2.293-.548,2.2,2.2,0,0,1,.626,3.32c-.113.12-.173.268-.135.33a8.116,8.116,0,0,0,3.064,1.09l.278.006-.362-.472Zm18.289.272a6.775,6.775,0,0,0,2.108-.9c.038-.062-.023-.21-.135-.33a2.2,2.2,0,0,1,.626-3.32,1.957,1.957,0,0,1,2.293.548,1.048,1.048,0,0,0,.258.315,9.85,9.85,0,0,0,.685-2.582c.194-1.607.4-3.474.4-3.629,0-.208-1.24.659-2.039,1.426a20.9,20.9,0,0,0-1.84,2.034c0,.024-.28.531-.622,1.126s-.775,1.418-.961,1.828a19.766,19.766,0,0,1-1.645,3.208c-.353.46-.356.472-.128.472a6.5,6.5,0,0,0,1-.2ZM55.533,4.841A6.41,6.41,0,0,0,53.4,2.813c-.4-.167-.382-.176-.362.2a2.21,2.21,0,0,1-.061.6c-.062.218-.045.274.085.274a9.057,9.057,0,0,1,2.046.865c.39.258.547.294.429.1Zm38.366-.1a9.057,9.057,0,0,1,2.046-.865c.129,0,.147-.055.085-.274a2.21,2.21,0,0,1-.061-.6c.02-.371.035-.363-.362-.2a5.522,5.522,0,0,0-1.661,1.4c-.668.836-.677.95-.046.532Z" transform="translate(745.557 470)" fill="#ffb13b"/>
  </g>
</svg>
