<svg xmlns="http://www.w3.org/2000/svg" xmlns:xlink="http://www.w3.org/1999/xlink" width="406" height="850" viewBox="0 0 406 850">
  <defs>
    <filter id="Tracciato_61" x="15.5" y="0" width="375" height="850" filterUnits="userSpaceOnUse">
      <feOffset dy="5" input="SourceAlpha"/>
      <feGaussianBlur stdDeviation="7.5" result="blur"/>
      <feFlood flood-color="#122a40"/>
      <feComposite operator="in" in2="blur"/>
      <feComposite in="SourceGraphic"/>
    </filter>
  </defs>
  <g id="Raggruppa_217" data-name="Raggruppa 217" transform="translate(-22 -229.499)">
    <g id="Raggruppa_216" data-name="Raggruppa 216">
      <g id="Raggruppa_124" data-name="Raggruppa 124">
        <g id="Raggruppa_109" data-name="Raggruppa 109" transform="translate(21.627 235.125)">
          <rect id="Rettangolo_32" data-name="Rettangolo 32" width="5" height="30" rx="2" transform="translate(30.373 -0.125)" fill="#bb7d10"/>
          <rect id="Rettangolo_33" data-name="Rettangolo 33" width="5" height="30" rx="2" transform="translate(371.373 -0.125)" fill="#bb7d10"/>
          <rect id="Rettangolo_29" data-name="Rettangolo 29" width="382" height="8" transform="translate(15.373 11.875)" fill="#ffb13b"/>
          <rect id="Rettangolo_30" data-name="Rettangolo 30" width="382" height="3" transform="translate(15.373 11.875)" fill="#bb7d10"/>
          <circle id="Ellisse_4" data-name="Ellisse 4" cx="15" cy="15" r="15" transform="translate(0.373 -0.125)" fill="#ba7c0f"/>
          <circle id="Ellisse_6" data-name="Ellisse 6" cx="15" cy="15" r="15" transform="translate(376.373 -0.125)" fill="#ba7c0f"/>
          <ellipse id="Ellisse_5" data-name="Ellisse 5" cx="15" cy="15.5" rx="15" ry="15.5" transform="translate(0.373 0.875)" fill="#ffb13b"/>
          <ellipse id="Ellisse_7" data-name="Ellisse 7" cx="15" cy="15.5" rx="15" ry="15.5" transform="translate(376.373 0.875)" fill="#ffb13b"/>
          <rect id="Rettangolo_34" data-name="Rettangolo 34" width="6" height="30" rx="2" transform="translate(28.373 -0.125)" fill="#ffb13b"/>
          <rect id="Rettangolo_35" data-name="Rettangolo 35" width="6" height="30" rx="2" transform="translate(372.373 -0.125)" fill="#ffb13b"/>
        </g>
        <g transform="matrix(1, 0, 0, 1, 22, 229.5)" filter="url(#Tracciato_61)">
          <path id="Tracciato_61-2" data-name="Tracciato 61" d="M0,0H330V805L165,751.094,0,805Z" transform="translate(38 17.5)" fill="#882b21"/>
        </g>
        <path id="path4691" d="M64.073,42.8a2.94,2.94,0,0,1-.639-.47,4.611,4.611,0,0,1-.869-1.7c0-.224.343-.186.874.1a2.048,2.048,0,0,0,1.136.249,1.322,1.322,0,0,0,1.194-.429,3.677,3.677,0,0,0,.743-.815,6.683,6.683,0,0,0,.231-4.05,21.234,21.234,0,0,0-1.117-3.61,18.118,18.118,0,0,1-.7-2.933l-.031-.348-.122.3a21.068,21.068,0,0,1-5.944,7.067,2.832,2.832,0,0,0-1.392,1.608,6.872,6.872,0,0,1-1.778,2.439A4.462,4.462,0,0,1,53.1,41.586a1.774,1.774,0,0,1-1.875-.459.931.931,0,0,1-.345-.848,2.687,2.687,0,0,0-.023-.492c-.013,0-.192.064-.4.142a12.077,12.077,0,0,1-2.712.512,39.929,39.929,0,0,1-7.458.242,1.115,1.115,0,0,0-.442-.1c-.14,0-.826-.108-1.523-.24s-1.437-.268-1.642-.3c-.345-.058-.373-.088-.373-.4,0-.389.037-.407,1.044-.506a2.79,2.79,0,0,0,.814-.162,4.086,4.086,0,0,1,.928-.236,4.754,4.754,0,0,0,2.55-1.331,3.078,3.078,0,0,1,.631-.264l.517-.169-.956-.329a13.628,13.628,0,0,1-2.345-.986,2.453,2.453,0,0,0-.5-.245,24.872,24.872,0,0,1-3.432-1.684l-.4-.277-1.045,1a23.676,23.676,0,0,1-6.908,4.606c-.768.349-1.474.676-1.568.728a17.849,17.849,0,0,1-2.678.752,19.052,19.052,0,0,1-6.7.386,16.356,16.356,0,0,1-3.4-1.065c-.373-.3.29-.321,1.8-.063a3.478,3.478,0,0,0,2.992-1.048,4.492,4.492,0,0,1,1.343-.773A4.2,4.2,0,0,1,21.1,37.83l.261.082-.049-.688c-.082-1.144.3-1.627,1.425-1.781.47-.064.987.091,1.076.324.105.274.209.134.21-.283A1.919,1.919,0,0,1,24.971,34c.308-.159.431-.168.995-.072a3.265,3.265,0,0,1,.87.252c.209.132.245.121.464-.139A2.364,2.364,0,0,1,29,33.466a1.658,1.658,0,0,1,.633.315,2.409,2.409,0,0,1,.7,1.443c0,.338.084.355.425.087a1.128,1.128,0,0,1,.319-.2,4.534,4.534,0,0,0,.662-.472c.327-.26.759-.6.958-.75a11.005,11.005,0,0,0,1.316-1.2c0-.024-.593-.344-1.318-.712s-1.452-.748-1.616-.845a2.988,2.988,0,0,0-.547-.249,1.3,1.3,0,0,1-.4-.2A9.049,9.049,0,0,0,29,30.133C25.4,28.6,23.377,28.173,21.73,28.6c-.689.179-.85.3-.544.392.261.083.5.6.5,1.093,0,.508-.44.774-1.188.719a.889.889,0,0,1-.824-.379c-.849-1.016-.437-2.185,1.008-2.863.538-.252.614-.26,2.4-.257a13.819,13.819,0,0,1,4.51.6,2.365,2.365,0,0,0,.736.106c.03-.03-.069-.241-.22-.469a3.962,3.962,0,0,1-.582-2.265c.069-.264.186-.264.405,0a5.763,5.763,0,0,0,1.177.686,3.88,3.88,0,0,1,1.309.849c.321.389.522.391.522.005s.23-.494.609-.3a2.044,2.044,0,0,1,.508.379c.207.239,1.414,2.2,1.657,2.7a8.445,8.445,0,0,0,.936,1.015l.838.816.3-.419a14.4,14.4,0,0,1,1.282-1.492,9.058,9.058,0,0,0,.633-.765,4.963,4.963,0,0,1,.411-.514c.092-.092.594-.7,1.115-1.36S40.259,25.6,40.363,25.5a6.4,6.4,0,0,0,.57-.767,3.061,3.061,0,0,1,.649-.746,9.078,9.078,0,0,0,.933-.786l.667-.624-2.558.008c-2.376.008-2.587.023-2.959.213a2.837,2.837,0,0,0-.553.357,2.488,2.488,0,0,1-1.353.545,1.138,1.138,0,0,1-.745-.924c0-.573.543-.554-9.547-.333-1.394.031-2.572.078-2.617.106a1.108,1.108,0,0,0-.017.57,2.855,2.855,0,0,1-.494,1.9,2.73,2.73,0,0,1-3.011.214,2.033,2.033,0,0,1-.791-1.78,2.144,2.144,0,0,1,.219-.743c.088-.135.135-.27.1-.3a3.4,3.4,0,0,0-.9.108,9.671,9.671,0,0,1-1.07.166,1.416,1.416,0,0,0-.529.158,6.317,6.317,0,0,1-.995.342c-.383.1-.853.238-1.044.3l-.788.269a8.493,8.493,0,0,0-1.116.533,5,5,0,0,1-.764.383,1.9,1.9,0,0,0-.476.278,7.959,7.959,0,0,1-.836.507,5,5,0,0,0-1.29.92,2.1,2.1,0,0,0,1.076.14A16.9,16.9,0,0,1,14,27.343a18.8,18.8,0,0,1,3.744,1.838A10.648,10.648,0,0,1,20.2,31.829a5.12,5.12,0,0,1,.262,1.094,2.3,2.3,0,0,1-.083,1.487,2.335,2.335,0,0,1-3.1,1.657,1.677,1.677,0,0,1-1.164-1.679,1.6,1.6,0,0,1,1.291-1.366,1.185,1.185,0,0,1,1.058.66.741.741,0,0,1,0,.75c-.122.312-.125.381-.016.381.182,0,.51-.434.651-.862.342-1.036-.616-2.707-1.875-3.272-1.321-.592-1.684-.623-6.081-.511-1.752.045-2.168.029-2.335-.088-.378-.265-.426-.186-.386.629.042.848.056.814-.544,1.343A1.061,1.061,0,0,1,7,32.426c-.4,0-.448.022-.381.174A2.444,2.444,0,0,1,6.114,35c-.362.318-.512.334-1.414.151-.207-.042-.224-.009-.228.429A3.459,3.459,0,0,1,3.9,37.569a6.233,6.233,0,0,0-.473.925,1.449,1.449,0,0,1-.282.479c-.165.18-.219.389-.247.954a2.221,2.221,0,0,0,.761,1.941c.447.48.68.871.579.973-.122.122-.769-.3-1.36-.878a6.6,6.6,0,0,1-1.575-2.739A4.984,4.984,0,0,1,1,37.033,7.618,7.618,0,0,1,1.3,34.562a14.211,14.211,0,0,1,.5-1.609,3.123,3.123,0,0,0,.19-.481,19.644,19.644,0,0,1,2.118-3.926A16.674,16.674,0,0,1,8.715,24.51c.377-.2,1-.543,1.382-.755a32.777,32.777,0,0,1,3.183-1.524c.372-.143.258-.149-1.741-.1-6.173.154-6.671.188-7.153.492a1.267,1.267,0,0,0-.489.546c-.1.286-.138.3-.609.3-.75,0-.976-.292-.9-1.171.018-.223,0-.226-.9-.2l-.92.028-.085-.323a1.488,1.488,0,0,1,0-.647l.085-.323.92.028c.9.027.919.024.9-.2-.072-.879.154-1.171.9-1.171.471,0,.509.019.609.3a1.267,1.267,0,0,0,.489.546c.482.3.98.338,7.153.492,2,.05,2.112.043,1.741-.1A32.779,32.779,0,0,1,10.1,19.214c-.383-.212-1-.552-1.382-.755a16.673,16.673,0,0,1-4.606-4.037A19.644,19.644,0,0,1,1.99,10.5a3.127,3.127,0,0,0-.19-.481,14.211,14.211,0,0,1-.5-1.609A7.618,7.618,0,0,1,1,5.936a4.984,4.984,0,0,1,.31-2.19A6.6,6.6,0,0,1,2.881,1.007c.591-.582,1.238-1,1.36-.878.1.1-.131.493-.579.973A2.221,2.221,0,0,0,2.9,3.043c.029.565.083.774.247.954a1.449,1.449,0,0,1,.282.479A6.233,6.233,0,0,0,3.9,5.4a3.459,3.459,0,0,1,.569,1.987c0,.438.021.471.228.429.9-.183,1.052-.167,1.414.151a2.444,2.444,0,0,1,.507,2.4c-.067.152-.019.174.381.174a1.061,1.061,0,0,1,.881.373c.6.529.586.495.544,1.343-.04.814.008.893.386.629.167-.117.583-.132,2.335-.088,4.4.112,4.76.082,6.081-.511,1.259-.564,2.217-2.235,1.875-3.272-.141-.428-.469-.862-.651-.862-.11,0-.107.069.016.381a.741.741,0,0,1,0,.75,1.185,1.185,0,0,1-1.058.66,1.6,1.6,0,0,1-1.291-1.366A1.677,1.677,0,0,1,17.279,6.9a2.335,2.335,0,0,1,3.1,1.657,2.3,2.3,0,0,1,.083,1.487A5.12,5.12,0,0,1,20.2,11.14a10.648,10.648,0,0,1-2.456,2.648A18.8,18.8,0,0,1,14,15.626a16.9,16.9,0,0,1-3.864.831,2.1,2.1,0,0,0-1.076.14,5,5,0,0,0,1.29.92,7.959,7.959,0,0,1,.836.507,1.9,1.9,0,0,0,.476.278,5,5,0,0,1,.764.383,8.494,8.494,0,0,0,1.116.533l.788.269c.191.065.661.2,1.044.3a6.317,6.317,0,0,1,.995.342,1.416,1.416,0,0,0,.529.158,9.662,9.662,0,0,1,1.07.166,3.4,3.4,0,0,0,.9.108c.031-.031-.015-.167-.1-.3a2.144,2.144,0,0,1-.219-.743,2.033,2.033,0,0,1,.791-1.78,2.73,2.73,0,0,1,3.011.214,2.855,2.855,0,0,1,.494,1.9,1.108,1.108,0,0,0,.017.57c.045.028,1.223.076,2.617.106,10.09.221,9.547.24,9.547-.333a1.138,1.138,0,0,1,.745-.923,2.488,2.488,0,0,1,1.353.545,2.838,2.838,0,0,0,.553.357c.373.19.583.205,2.959.213l2.558.008-.667-.624a9.078,9.078,0,0,0-.933-.786,3.061,3.061,0,0,1-.649-.746,6.4,6.4,0,0,0-.57-.767c-.1-.1-.615-.72-1.136-1.376s-1.023-1.268-1.115-1.36a4.963,4.963,0,0,1-.411-.514,9.058,9.058,0,0,0-.633-.765,14.4,14.4,0,0,1-1.282-1.492l-.3-.419-.838.816a8.446,8.446,0,0,0-.936,1.015c-.242.493-1.449,2.459-1.657,2.7a2.044,2.044,0,0,1-.508.379c-.378.2-.609.083-.609-.3s-.2-.384-.522.005a3.88,3.88,0,0,1-1.309.849,5.763,5.763,0,0,0-1.177.686c-.22.262-.336.262-.405,0A3.962,3.962,0,0,1,28.1,15.43c.151-.228.25-.439.22-.469a2.365,2.365,0,0,0-.736.106,13.819,13.819,0,0,1-4.51.6c-1.782,0-1.858,0-2.4-.257-1.446-.678-1.857-1.847-1.008-2.863a.889.889,0,0,1,.824-.379c.747-.055,1.188.211,1.188.719,0,.489-.238,1.01-.5,1.093-.306.1-.145.213.544.392,1.647.429,3.674,0,7.265-1.531a9.049,9.049,0,0,0,1.144-.551,1.3,1.3,0,0,1,.4-.2,2.988,2.988,0,0,0,.547-.249c.164-.1.891-.477,1.616-.845s1.318-.689,1.318-.712a11,11,0,0,0-1.316-1.2c-.2-.153-.631-.491-.958-.75a4.535,4.535,0,0,0-.662-.472,1.128,1.128,0,0,1-.319-.2c-.341-.268-.425-.251-.425.087a2.409,2.409,0,0,1-.7,1.443A1.658,1.658,0,0,1,29,9.5,2.364,2.364,0,0,1,27.3,8.927c-.219-.26-.254-.271-.464-.139a3.265,3.265,0,0,1-.87.252c-.564.1-.686.087-.995-.072a1.919,1.919,0,0,1-.948-1.482c0-.416-.1-.557-.21-.283-.089.233-.606.388-1.076.324-1.12-.154-1.507-.637-1.425-1.781l.049-.688L21.1,5.14a4.2,4.2,0,0,1-2.105-.149,4.492,4.492,0,0,1-1.343-.773A3.478,3.478,0,0,0,14.66,3.17c-1.513.258-2.175.235-1.8-.063a16.356,16.356,0,0,1,3.4-1.065,19.052,19.052,0,0,1,6.7.386,17.849,17.849,0,0,1,2.678.752c.094.052.8.379,1.568.728a23.676,23.676,0,0,1,6.908,4.606l1.045,1,.4-.277a24.873,24.873,0,0,1,3.432-1.684,2.453,2.453,0,0,0,.5-.245,13.625,13.625,0,0,1,2.345-.986L42.79,6l-.517-.169a3.078,3.078,0,0,1-.631-.264,4.754,4.754,0,0,0-2.55-1.331A4.086,4.086,0,0,1,38.165,4a2.79,2.79,0,0,0-.814-.162c-1.007-.1-1.044-.116-1.044-.506,0-.312.028-.342.373-.4.205-.035.944-.171,1.642-.3s1.383-.24,1.523-.24a1.115,1.115,0,0,0,.442-.1,39.929,39.929,0,0,1,7.458.242,12.077,12.077,0,0,1,2.712.512c.206.078.385.142.4.142a2.692,2.692,0,0,0,.023-.492.931.931,0,0,1,.345-.848A1.774,1.774,0,0,1,53.1,1.384a4.462,4.462,0,0,1,2.559,1.377A6.872,6.872,0,0,1,57.436,5.2a2.832,2.832,0,0,0,1.392,1.608,21.068,21.068,0,0,1,5.944,7.067l.122.3.031-.348a18.117,18.117,0,0,1,.7-2.933,21.234,21.234,0,0,0,1.117-3.61,6.683,6.683,0,0,0-.231-4.05,3.677,3.677,0,0,0-.743-.815,1.322,1.322,0,0,0-1.194-.429,2.048,2.048,0,0,0-1.136.249c-.531.283-.874.321-.874.1a4.606,4.606,0,0,1,.871-1.7A2.182,2.182,0,0,1,65.328,0c1.249,0,1.7.2,2.17.973.15.247.224.3.265.2A1.658,1.658,0,0,1,68.29.748.988.988,0,0,1,69.318.6a1.735,1.735,0,0,1,1.018.585,1.9,1.9,0,0,1-.482,3.191.9.9,0,0,1-.771-.028l-.451-.154,0,.367a18.6,18.6,0,0,1-.583,3.081c-.286.534-.063.4.347-.216a17.363,17.363,0,0,1,2.65-2.776A25.146,25.146,0,0,1,73.93,2.735l.571-.3.571.3a25.145,25.145,0,0,1,2.886,1.911,17.362,17.362,0,0,1,2.65,2.776c.41.611.632.749.347.216a18.6,18.6,0,0,1-.583-3.081l0-.367-.451.154a1.223,1.223,0,0,1-1.4-.39C77.451,2.96,78.155.936,79.684.6a.988.988,0,0,1,1.028.152,1.658,1.658,0,0,1,.527.422c.04.105.115.05.265-.2C81.972.2,82.425,0,83.674,0a2.182,2.182,0,0,1,1.892.636,4.607,4.607,0,0,1,.871,1.7c0,.224-.343.186-.874-.1a2.048,2.048,0,0,0-1.136-.249,1.322,1.322,0,0,0-1.194.429,3.677,3.677,0,0,0-.743.815,6.683,6.683,0,0,0-.231,4.05,21.233,21.233,0,0,0,1.117,3.61,18.117,18.117,0,0,1,.7,2.933l.031.348.122-.3a21.068,21.068,0,0,1,5.944-7.067A2.832,2.832,0,0,0,91.567,5.2a6.872,6.872,0,0,1,1.778-2.439A4.462,4.462,0,0,1,95.9,1.384a1.774,1.774,0,0,1,1.875.459.931.931,0,0,1,.345.848,2.688,2.688,0,0,0,.023.492c.013,0,.192-.064.4-.142a12.077,12.077,0,0,1,2.712-.512,39.929,39.929,0,0,1,7.458-.242,1.115,1.115,0,0,0,.442.1c.14,0,.826.108,1.523.24s1.437.268,1.642.3c.345.058.373.088.373.4,0,.389-.037.407-1.044.506a2.79,2.79,0,0,0-.814.162,4.086,4.086,0,0,1-.928.236,4.754,4.754,0,0,0-2.55,1.331,3.078,3.078,0,0,1-.631.264L106.212,6l.956.329a13.625,13.625,0,0,1,2.345.986,2.453,2.453,0,0,0,.5.245,24.872,24.872,0,0,1,3.432,1.684l.4.277,1.045-1a23.676,23.676,0,0,1,6.908-4.606c.768-.349,1.474-.676,1.568-.728a17.849,17.849,0,0,1,2.678-.752,19.052,19.052,0,0,1,6.7-.386,16.356,16.356,0,0,1,3.4,1.065c.373.3-.29.321-1.8.063a3.478,3.478,0,0,0-2.992,1.048,4.492,4.492,0,0,1-1.343.773,4.2,4.2,0,0,1-2.105.149l-.261-.082.049.688c.082,1.144-.3,1.627-1.425,1.781-.47.064-.987-.091-1.076-.324-.105-.274-.209-.134-.21.283a1.919,1.919,0,0,1-.948,1.482c-.308.159-.431.168-.995.072a3.265,3.265,0,0,1-.87-.252c-.209-.132-.245-.121-.464.139A2.364,2.364,0,0,1,120,9.5a1.658,1.658,0,0,1-.633-.315,2.409,2.409,0,0,1-.7-1.443c0-.338-.085-.355-.425-.087a1.128,1.128,0,0,1-.319.2,4.534,4.534,0,0,0-.662.472c-.327.26-.759.6-.958.75a11,11,0,0,0-1.316,1.2c0,.024.593.344,1.318.712s1.452.748,1.616.845a2.988,2.988,0,0,0,.547.249,1.3,1.3,0,0,1,.4.2,9.048,9.048,0,0,0,1.144.551c3.591,1.532,5.618,1.96,7.265,1.531.689-.179.85-.3.544-.392-.261-.083-.5-.6-.5-1.093,0-.508.44-.774,1.188-.719a.889.889,0,0,1,.824.379c.849,1.016.437,2.185-1.008,2.863-.538.252-.614.26-2.4.257a13.819,13.819,0,0,1-4.51-.6,2.365,2.365,0,0,0-.736-.106c-.03.03.069.241.22.469a3.962,3.962,0,0,1,.582,2.265c-.069.264-.186.264-.405,0a5.763,5.763,0,0,0-1.177-.686,3.88,3.88,0,0,1-1.309-.849c-.321-.389-.522-.391-.522-.005s-.23.494-.609.3a2.045,2.045,0,0,1-.508-.379c-.207-.239-1.414-2.2-1.657-2.7a8.446,8.446,0,0,0-.936-1.015l-.838-.816-.3.419a14.4,14.4,0,0,1-1.282,1.492,9.056,9.056,0,0,0-.633.765,4.964,4.964,0,0,1-.411.514c-.092.092-.594.7-1.115,1.36s-1.032,1.275-1.136,1.376a6.4,6.4,0,0,0-.57.767,3.061,3.061,0,0,1-.649.746,9.078,9.078,0,0,0-.933.786l-.667.624,2.558-.008c2.376-.008,2.587-.023,2.959-.213a2.838,2.838,0,0,0,.553-.357,2.488,2.488,0,0,1,1.353-.545,1.138,1.138,0,0,1,.745.924c0,.573-.543.554,9.547.333,1.394-.031,2.572-.078,2.617-.106a1.108,1.108,0,0,0,.017-.57,2.855,2.855,0,0,1,.494-1.9,2.73,2.73,0,0,1,3.011-.214,2.033,2.033,0,0,1,.791,1.78,2.144,2.144,0,0,1-.219.743c-.088.135-.135.27-.1.3a3.4,3.4,0,0,0,.9-.108,9.672,9.672,0,0,1,1.07-.166,1.416,1.416,0,0,0,.529-.158,6.318,6.318,0,0,1,.995-.342c.383-.1.853-.238,1.044-.3l.788-.269a8.494,8.494,0,0,0,1.116-.533,5,5,0,0,1,.764-.383,1.9,1.9,0,0,0,.476-.278,7.959,7.959,0,0,1,.836-.507,5,5,0,0,0,1.29-.92,2.1,2.1,0,0,0-1.076-.14,16.9,16.9,0,0,1-3.864-.831,18.8,18.8,0,0,1-3.744-1.838,10.648,10.648,0,0,1-2.456-2.648,5.12,5.12,0,0,1-.262-1.094,2.3,2.3,0,0,1,.083-1.487,2.335,2.335,0,0,1,3.1-1.657,1.677,1.677,0,0,1,1.164,1.679A1.6,1.6,0,0,1,131.6,9.947a1.185,1.185,0,0,1-1.058-.66.74.74,0,0,1,0-.75c.123-.312.125-.381.015-.381-.182,0-.51.434-.651.862-.342,1.036.616,2.707,1.875,3.272,1.321.592,1.684.623,6.081.511,1.752-.045,2.168-.029,2.335.088.378.265.426.186.386-.629-.042-.848-.056-.814.544-1.343a1.061,1.061,0,0,1,.881-.373c.4,0,.448-.022.381-.174a2.444,2.444,0,0,1,.507-2.4c.362-.318.512-.334,1.414-.151.207.042.224.009.228-.429A3.459,3.459,0,0,1,145.1,5.4a6.235,6.235,0,0,0,.473-.925A1.449,1.449,0,0,1,145.853,4c.165-.18.219-.389.247-.954A2.221,2.221,0,0,0,145.34,1.1c-.447-.48-.68-.871-.579-.973.122-.122.769.3,1.36.878A6.6,6.6,0,0,1,147.7,3.746a4.983,4.983,0,0,1,.31,2.19,7.617,7.617,0,0,1-.307,2.471,14.208,14.208,0,0,1-.5,1.609,3.128,3.128,0,0,0-.19.481,19.644,19.644,0,0,1-2.118,3.926,16.674,16.674,0,0,1-4.606,4.037c-.377.2-1,.544-1.382.755a32.778,32.778,0,0,1-3.183,1.524c-.372.143-.258.149,1.741.1,6.173-.154,6.671-.188,7.153-.492a1.267,1.267,0,0,0,.489-.546c.1-.286.138-.3.609-.3.75,0,.976.292.9,1.171-.018.223,0,.226.9.2l.92-.028.085.323a1.488,1.488,0,0,1,0,.647l-.085.323-.92-.028c-.9-.027-.919-.024-.9.2.072.879-.154,1.171-.9,1.171-.471,0-.509-.019-.609-.3a1.267,1.267,0,0,0-.489-.546c-.482-.3-.98-.338-7.153-.492-2-.05-2.112-.043-1.741.1a32.779,32.779,0,0,1,3.183,1.524c.383.212,1,.552,1.382.755a16.674,16.674,0,0,1,4.606,4.037,19.644,19.644,0,0,1,2.118,3.926,3.128,3.128,0,0,0,.19.481,14.209,14.209,0,0,1,.5,1.609,7.618,7.618,0,0,1,.307,2.471,4.983,4.983,0,0,1-.31,2.19,6.6,6.6,0,0,1-1.575,2.739c-.591.582-1.238,1-1.36.878-.1-.1.131-.493.579-.973a2.221,2.221,0,0,0,.761-1.941c-.029-.565-.083-.774-.247-.954a1.449,1.449,0,0,1-.282-.479,6.235,6.235,0,0,0-.473-.925,3.459,3.459,0,0,1-.569-1.987c0-.438-.021-.471-.228-.429-.9.183-1.052.167-1.414-.151a2.444,2.444,0,0,1-.507-2.4c.067-.152.019-.174-.381-.174a1.061,1.061,0,0,1-.881-.373c-.6-.529-.586-.495-.544-1.343.04-.814-.008-.893-.386-.629-.167.117-.583.132-2.335.088-4.4-.112-4.76-.082-6.081.511-1.259.564-2.217,2.235-1.875,3.272.141.428.469.862.651.862.11,0,.107-.069-.016-.381a.741.741,0,0,1,0-.75,1.185,1.185,0,0,1,1.058-.66,1.6,1.6,0,0,1,1.291,1.366,1.677,1.677,0,0,1-1.164,1.679,2.335,2.335,0,0,1-3.1-1.657,2.3,2.3,0,0,1-.083-1.487,5.12,5.12,0,0,1,.262-1.094,10.647,10.647,0,0,1,2.456-2.648,18.8,18.8,0,0,1,3.744-1.838,16.9,16.9,0,0,1,3.864-.831,2.1,2.1,0,0,0,1.076-.14,5.005,5.005,0,0,0-1.29-.92,7.959,7.959,0,0,1-.836-.507,1.9,1.9,0,0,0-.476-.278,5,5,0,0,1-.764-.383,8.495,8.495,0,0,0-1.116-.533l-.788-.269c-.191-.065-.661-.2-1.044-.3a6.317,6.317,0,0,1-.995-.342,1.416,1.416,0,0,0-.529-.158,9.662,9.662,0,0,1-1.07-.166,3.4,3.4,0,0,0-.9-.108c-.031.031.015.167.1.3a2.144,2.144,0,0,1,.219.743,2.033,2.033,0,0,1-.791,1.78,2.73,2.73,0,0,1-3.011-.214,2.855,2.855,0,0,1-.494-1.9,1.108,1.108,0,0,0-.017-.57c-.045-.028-1.223-.076-2.617-.106-10.091-.221-9.547-.24-9.547.333a1.138,1.138,0,0,1-.745.923,2.488,2.488,0,0,1-1.353-.545,2.837,2.837,0,0,0-.553-.357c-.373-.19-.583-.205-2.959-.213l-2.558-.008.667.624a9.079,9.079,0,0,0,.933.786,3.061,3.061,0,0,1,.649.746,6.4,6.4,0,0,0,.57.767c.1.1.615.72,1.136,1.376s1.023,1.268,1.115,1.36a4.963,4.963,0,0,1,.411.514,9.058,9.058,0,0,0,.633.765A14.4,14.4,0,0,1,113.216,31l.3.419.838-.816a8.446,8.446,0,0,0,.936-1.015c.242-.493,1.449-2.459,1.657-2.7a2.044,2.044,0,0,1,.508-.379c.378-.2.609-.083.609.3s.2.384.522-.005a3.88,3.88,0,0,1,1.309-.849,5.763,5.763,0,0,0,1.177-.686c.22-.262.336-.262.405,0a3.962,3.962,0,0,1-.582,2.265c-.151.228-.25.439-.22.469a2.365,2.365,0,0,0,.736-.106,13.819,13.819,0,0,1,4.51-.6c1.782,0,1.858,0,2.4.257,1.446.678,1.857,1.847,1.008,2.863a.889.889,0,0,1-.824.379c-.747.055-1.188-.211-1.188-.719,0-.489.238-1.01.5-1.093.306-.1.145-.213-.544-.392-1.646-.429-3.674,0-7.265,1.531a9.048,9.048,0,0,0-1.144.551,1.3,1.3,0,0,1-.4.2,2.989,2.989,0,0,0-.547.249c-.164.1-.891.477-1.616.845s-1.318.689-1.318.712a11,11,0,0,0,1.316,1.2c.2.153.631.491.958.75a4.533,4.533,0,0,0,.662.472,1.128,1.128,0,0,1,.319.2c.341.268.425.251.425-.087a2.409,2.409,0,0,1,.7-1.443,1.658,1.658,0,0,1,.633-.315,2.364,2.364,0,0,1,1.706.577c.219.26.254.271.464.139a3.266,3.266,0,0,1,.87-.252c.564-.1.686-.087.995.072a1.919,1.919,0,0,1,.948,1.482c0,.416.1.557.21.283.089-.233.606-.388,1.076-.324,1.12.154,1.507.637,1.425,1.781l-.049.688.261-.082a4.2,4.2,0,0,1,2.105.149,4.492,4.492,0,0,1,1.343.773,3.478,3.478,0,0,0,2.992,1.048c1.513-.258,2.175-.235,1.8.063a16.356,16.356,0,0,1-3.4,1.065,19.052,19.052,0,0,1-6.7-.386,17.848,17.848,0,0,1-2.678-.752c-.094-.052-.8-.379-1.568-.728a23.676,23.676,0,0,1-6.908-4.606l-1.045-1-.4.277a24.873,24.873,0,0,1-3.432,1.684,2.453,2.453,0,0,0-.5.245,13.625,13.625,0,0,1-2.345.986l-.956.329.517.169a3.078,3.078,0,0,1,.631.264,4.754,4.754,0,0,0,2.55,1.331,4.086,4.086,0,0,1,.928.236,2.79,2.79,0,0,0,.814.162c1.007.1,1.044.116,1.044.506,0,.312-.028.342-.373.4-.205.035-.944.171-1.642.3s-1.383.24-1.523.24a1.115,1.115,0,0,0-.442.1,39.929,39.929,0,0,1-7.458-.242,12.077,12.077,0,0,1-2.712-.512c-.206-.078-.385-.142-.4-.142a2.692,2.692,0,0,0-.023.492.931.931,0,0,1-.345.848,1.774,1.774,0,0,1-1.875.459,4.462,4.462,0,0,1-2.559-1.377,6.873,6.873,0,0,1-1.778-2.439,2.832,2.832,0,0,0-1.392-1.608,21.068,21.068,0,0,1-5.944-7.067l-.122-.3-.031.348a18.117,18.117,0,0,1-.7,2.933,21.234,21.234,0,0,0-1.117,3.61,6.683,6.683,0,0,0,.231,4.05,3.677,3.677,0,0,0,.743.815,1.322,1.322,0,0,0,1.194.429,2.048,2.048,0,0,0,1.136-.249c.531-.283.874-.321.874-.1a4.606,4.606,0,0,1-.871,1.7,2.182,2.182,0,0,1-1.892.636c-1.249,0-1.7-.2-2.17-.973-.15-.247-.224-.3-.265-.2a1.658,1.658,0,0,1-.527.422.988.988,0,0,1-1.028.152,1.735,1.735,0,0,1-1.018-.585,1.9,1.9,0,0,1,.482-3.191.9.9,0,0,1,.771.028l.451.154,0-.367a18.6,18.6,0,0,1,.583-3.081c.286-.534.063-.4-.347.216a17.362,17.362,0,0,1-2.65,2.776,25.145,25.145,0,0,1-2.886,1.911l-.571.3-.571-.3a25.145,25.145,0,0,1-2.886-1.911,17.362,17.362,0,0,1-2.65-2.776c-.41-.611-.632-.749-.347-.216a18.6,18.6,0,0,1,.583,3.081l0,.367.451-.154a1.223,1.223,0,0,1,1.4.39c1.064.994.359,3.017-1.169,3.357a.988.988,0,0,1-1.028-.152,1.658,1.658,0,0,1-.527-.422c-.04-.105-.115-.05-.265.2a1.622,1.622,0,0,1-.9.817,4.9,4.9,0,0,1-2.523-.012ZM53.4,40.156a4.382,4.382,0,0,0,.783-.514,6.026,6.026,0,0,0,1.377-1.627c-.027-.027-.218.061-.424.194a9.225,9.225,0,0,1-2.074.88c-.129,0-.147.055-.085.274a2.209,2.209,0,0,1,.061.6c-.02.371-.035.363.362.2Zm42.573-.2a2.209,2.209,0,0,1,.061-.6c.062-.218.045-.274-.085-.274a9.228,9.228,0,0,1-2.074-.88c-.206-.134-.4-.221-.424-.194a6.027,6.027,0,0,0,1.38,1.629,3.025,3.025,0,0,0,1.085.631c.041,0,.067-.137.058-.315ZM71.816,36.094a2.862,2.862,0,0,1,1.113-1.583c.388-.222.538-.245,1.573-.245s1.185.024,1.573.245a2.862,2.862,0,0,1,1.113,1.583c0,.116.021.211.048.211a8.388,8.388,0,0,0,1.9-1.6,12.341,12.341,0,0,0,2.839-4.97,5.654,5.654,0,0,0,.159-2.029,6.144,6.144,0,0,0-.827-3.053c-.293-.579-.382-.59-.224-.028a6.29,6.29,0,0,1,.117,1.238,5.8,5.8,0,0,1-1.981,4.229,5.4,5.4,0,0,1-1.492,1.13c-.378.183-.766.372-.861.421-.228.117-.673.114-.673,0,0-.052.1-.164.221-.249a3.2,3.2,0,0,0,.979-1.371,5.4,5.4,0,0,0-.263-2.364c-.281-1.282-.015-3.043.521-3.451.127-.1.066-.118-.333-.115-.737.006-1.138-.218-2.016-1.127l-.8-.827-.8.827c-.878.909-1.279,1.133-2.016,1.127-.4,0-.461.018-.333.115.536.408.8,2.169.521,3.451a5.4,5.4,0,0,0-.263,2.364,3.2,3.2,0,0,0,.979,1.371c.122.085.221.2.221.249,0,.119-.445.122-.673,0-.095-.049-.482-.238-.861-.421a5.4,5.4,0,0,1-1.492-1.13A5.8,5.8,0,0,1,67.8,25.861a6.29,6.29,0,0,1,.117-1.238c.158-.562.069-.551-.224.028a6.144,6.144,0,0,0-.827,3.053,5.654,5.654,0,0,0,.159,2.029,12.339,12.339,0,0,0,2.82,4.947A8.5,8.5,0,0,0,71.741,36.3c.041,0,.075-.088.075-.2ZM54.829,34.841a4.672,4.672,0,0,1,.847-.321c1.213-.37,1.161-.262,1.193-2.506a35.124,35.124,0,0,1,.375-5.606,4.886,4.886,0,0,1,1.467-2.5c.4-.381.855-.79,1.019-.909l.3-.217-.845-.007c-.465,0-2.188-.047-3.828-.1s-2.992-.08-3-.069a5.84,5.84,0,0,0,.628.515,6.03,6.03,0,0,1,2.618,4,4.521,4.521,0,0,1-.4,2.582c-.325.783-.614.794-.747.03a2.552,2.552,0,0,0-.445-1.3.664.664,0,0,1-.194-.291c0-.054-.112-.126-.249-.16s-.249-.125-.249-.2-.04-.138-.089-.138a1.2,1.2,0,0,1-.382-.257,5.305,5.305,0,0,0-1-.581,6.6,6.6,0,0,1-.886-.465,4.168,4.168,0,0,0-.564-.339,2.9,2.9,0,0,1-1.113-1.317c-.057-.211-.238-.319-.238-.141A5.255,5.255,0,0,1,47.409,26.4c-1.425,1.172-2.151,2.2-2.151,3.048,0,.466-.232.358-.637-.3a4.513,4.513,0,0,1-.048-4.562,1.74,1.74,0,0,0,.255-.578,1.971,1.971,0,0,0-.578.383c-.293.236-.69.545-.881.688a47.707,47.707,0,0,0-3.533,3.52c-.163.219-.431.539-.6.711s-.477.523-.7.78A9.275,9.275,0,0,1,36.82,31.9l-.35.218.788.375a5.5,5.5,0,0,1,.847.459,29.987,29.987,0,0,0,3.72,1.467c.383.1.853.237,1.044.293a3.807,3.807,0,0,0,.395.1,4.013,4.013,0,0,0-.507-.572,6.037,6.037,0,0,1-1.293-1.915A3.108,3.108,0,0,1,41.1,30.6a2.726,2.726,0,0,1,.617-2.279c.35-.445.459-.468.459-.1a3.425,3.425,0,0,0,.333.97,3.546,3.546,0,0,0,2.651,2.131,3.057,3.057,0,0,1,2.252,1.095c.192.325.335.392.335.156,0-.26.583-.819,1.069-1.024a4.736,4.736,0,0,1,1.123-.267c.632-.065.662-.057,1.1.275A2.306,2.306,0,0,1,52.1,33.375a1.455,1.455,0,0,1-.167,1.048l-.22.391.231.1a10.706,10.706,0,0,0,2.888-.071Zm42.211.068.252-.1-.22-.391a1.455,1.455,0,0,1-.167-1.048,2.306,2.306,0,0,1,1.064-1.812c.435-.332.465-.34,1.1-.275a4.736,4.736,0,0,1,1.123.267c.485.205,1.069.764,1.069,1.024,0,.235.143.168.335-.156a3.057,3.057,0,0,1,2.252-1.095,3.546,3.546,0,0,0,2.651-2.131,3.425,3.425,0,0,0,.333-.97c0-.371.109-.348.459.1A2.726,2.726,0,0,1,107.9,30.6a3.108,3.108,0,0,1-.367,1.724,6.037,6.037,0,0,1-1.293,1.915,4.015,4.015,0,0,0-.507.572,3.807,3.807,0,0,0,.395-.1c.191-.056.661-.188,1.044-.293a29.984,29.984,0,0,0,3.72-1.467,5.5,5.5,0,0,1,.847-.459l.788-.375-.35-.218a9.275,9.275,0,0,1-1.724-1.811c-.219-.257-.532-.608-.7-.78s-.432-.492-.6-.711a47.706,47.706,0,0,0-3.533-3.52c-.191-.143-.588-.453-.881-.688a1.971,1.971,0,0,0-.578-.383,1.74,1.74,0,0,0,.255.578,4.513,4.513,0,0,1-.048,4.562c-.405.656-.637.765-.637.3,0-.847-.726-1.876-2.151-3.048a5.257,5.257,0,0,1-1.629-1.845c0-.177-.181-.07-.238.141a2.9,2.9,0,0,1-1.113,1.317,4.168,4.168,0,0,0-.564.339,6.606,6.606,0,0,1-.886.465,5.3,5.3,0,0,0-1,.581,1.2,1.2,0,0,1-.382.257c-.049,0-.089.062-.089.138s-.112.167-.249.2-.249.106-.249.16a.665.665,0,0,1-.194.291,2.553,2.553,0,0,0-.445,1.3c-.133.765-.422.753-.747-.03a4.521,4.521,0,0,1-.4-2.582,6.03,6.03,0,0,1,2.618-4,5.84,5.84,0,0,0,.628-.515c-.011-.011-1.362.02-3,.069s-3.363.092-3.828.1l-.845.007.3.217c.164.119.623.528,1.019.909a4.886,4.886,0,0,1,1.467,2.5,35.123,35.123,0,0,1,.375,5.606c.032,2.244-.019,2.136,1.193,2.506a5.38,5.38,0,0,1,.819.3,8.157,8.157,0,0,0,2.894.092ZM60.725,31.944a20.9,20.9,0,0,0,1.84-2.034c0-.024.28-.531.622-1.126s.775-1.418.961-1.828a19.765,19.765,0,0,1,1.645-3.208c.353-.46.356-.472.128-.472a8.356,8.356,0,0,0-3.108,1.1c-.038.062.023.21.135.33a2.2,2.2,0,0,1-.626,3.32,1.957,1.957,0,0,1-2.293-.548,1.048,1.048,0,0,0-.258-.315,9.853,9.853,0,0,0-.685,2.582c-.194,1.607-.4,3.474-.4,3.629,0,.208,1.24-.659,2.039-1.426Zm29.449.016a19.226,19.226,0,0,0-.623-3.935,3.862,3.862,0,0,0-.32-.866,1.048,1.048,0,0,0-.258.315,1.957,1.957,0,0,1-2.293.548,2.2,2.2,0,0,1-.626-3.32c.113-.12.173-.268.135-.33a8.354,8.354,0,0,0-3.108-1.1c-.228,0-.225.012.128.472a19.765,19.765,0,0,1,1.645,3.208c.187.41.619,1.233.961,1.828s.622,1.1.622,1.126a20.888,20.888,0,0,0,1.84,2.034A10.641,10.641,0,0,0,90.3,33.465c.019-.017-.038-.695-.128-1.505ZM75.333,19.987c.837-.882,1.246-1.11,1.983-1.1.4,0,.461-.018.333-.115-.536-.408-.8-2.169-.521-3.451a5.4,5.4,0,0,0,.263-2.364,3.2,3.2,0,0,0-.979-1.371c-.122-.085-.221-.2-.221-.249,0-.119.445-.122.673,0,.095.049.482.238.861.421a5.4,5.4,0,0,1,1.492,1.13A5.8,5.8,0,0,1,81.2,17.108a6.29,6.29,0,0,1-.117,1.238c-.158.562-.069.551.224-.028a6.144,6.144,0,0,0,.827-3.053,5.654,5.654,0,0,0-.159-2.029,12.341,12.341,0,0,0-2.839-4.97,8.389,8.389,0,0,0-1.9-1.6c-.026,0-.048.095-.048.211a2.862,2.862,0,0,1-1.113,1.583c-.388.222-.539.245-1.573.245s-1.185-.024-1.573-.245a2.862,2.862,0,0,1-1.113-1.583c0-.116-.021-.211-.048-.211a8.388,8.388,0,0,0-1.9,1.6,12.341,12.341,0,0,0-2.839,4.97,5.654,5.654,0,0,0-.159,2.029,6.144,6.144,0,0,0,.827,3.053c.293.579.382.59.224.028a6.29,6.29,0,0,1-.117-1.238,5.8,5.8,0,0,1,1.981-4.229,5.4,5.4,0,0,1,1.492-1.13c.378-.183.766-.372.861-.421.228-.117.673-.114.673,0,0,.052-.1.164-.221.249a3.2,3.2,0,0,0-.979,1.371,5.4,5.4,0,0,0,.263,2.364c.281,1.282.015,3.043-.521,3.451-.127.1-.066.118.333.115.737-.006,1.146.222,1.983,1.1a6.963,6.963,0,0,0,.832.8,6.963,6.963,0,0,0,.832-.8Zm-18.1.244,2.78-.063-.293-.208c-.161-.114-.618-.519-1.014-.9a4.886,4.886,0,0,1-1.467-2.5,35.123,35.123,0,0,1-.375-5.606c-.032-2.244.019-2.136-1.193-2.506a4.689,4.689,0,0,1-.846-.32,9.653,9.653,0,0,0-2.839-.08l-.28.107.22.391A1.455,1.455,0,0,1,52.1,9.595a2.306,2.306,0,0,1-1.064,1.812c-.435.332-.465.34-1.1.275a4.736,4.736,0,0,1-1.123-.267c-.485-.205-1.069-.764-1.069-1.024,0-.235-.143-.168-.335.156a3.057,3.057,0,0,1-2.252,1.095,3.546,3.546,0,0,0-2.651,2.131,3.425,3.425,0,0,0-.333.97c0,.371-.109.348-.459-.1a2.726,2.726,0,0,1-.617-2.279,3.108,3.108,0,0,1,.367-1.724,6.037,6.037,0,0,1,1.293-1.915,4.013,4.013,0,0,0,.507-.572,3.806,3.806,0,0,0-.395.1c-.191.056-.661.188-1.044.293a29.985,29.985,0,0,0-3.72,1.467,5.5,5.5,0,0,1-.847.459l-.788.375.35.218a9.275,9.275,0,0,1,1.724,1.811c.219.257.532.608.7.78s.432.492.6.711a47.706,47.706,0,0,0,3.533,3.52c.191.143.588.453.881.688a1.971,1.971,0,0,0,.578.383,1.74,1.74,0,0,0-.255-.578,4.513,4.513,0,0,1,.048-4.562c.405-.656.637-.765.637-.3,0,.847.726,1.876,2.151,3.048a5.255,5.255,0,0,1,1.629,1.845c0,.177.181.07.238-.141a2.9,2.9,0,0,1,1.113-1.317,4.168,4.168,0,0,0,.564-.339,6.605,6.605,0,0,1,.886-.465,5.3,5.3,0,0,0,1-.581,1.2,1.2,0,0,1,.382-.257c.049,0,.089-.062.089-.138s.112-.167.249-.2.249-.106.249-.16a.665.665,0,0,1,.194-.291,2.553,2.553,0,0,0,.445-1.3c.133-.765.422-.753.747.03a4.521,4.521,0,0,1,.4,2.582,6.023,6.023,0,0,1-2.623,4,6.756,6.756,0,0,0-.654.533,8.042,8.042,0,0,0,1.068-.023c.588-.032,2.32-.087,3.849-.122Zm39.443.134c0-.014-.295-.249-.654-.522a6.023,6.023,0,0,1-2.623-4,4.521,4.521,0,0,1,.4-2.582c.325-.783.614-.794.747-.03a2.552,2.552,0,0,0,.445,1.3.665.665,0,0,1,.194.291c0,.054.112.126.249.16s.249.125.249.2.04.138.089.138a1.2,1.2,0,0,1,.382.257,5.3,5.3,0,0,0,1,.581,6.6,6.6,0,0,1,.886.465,4.168,4.168,0,0,0,.564.339,2.9,2.9,0,0,1,1.113,1.317c.057.211.238.319.238.141a5.255,5.255,0,0,1,1.629-1.845c1.425-1.172,2.151-2.2,2.151-3.048,0-.466.232-.358.637.3a4.513,4.513,0,0,1,.048,4.562,1.74,1.74,0,0,0-.255.578,1.971,1.971,0,0,0,.578-.383c.293-.236.69-.545.881-.688a47.708,47.708,0,0,0,3.533-3.52c.163-.219.431-.539.6-.711s.477-.523.7-.78a9.275,9.275,0,0,1,1.724-1.811l.35-.218-.788-.375a5.5,5.5,0,0,1-.847-.459,29.987,29.987,0,0,0-3.72-1.467c-.383-.1-.853-.237-1.044-.293a3.79,3.79,0,0,0-.395-.1,4.014,4.014,0,0,0,.507.572,6.037,6.037,0,0,1,1.293,1.915,3.108,3.108,0,0,1,.367,1.724,2.726,2.726,0,0,1-.617,2.279c-.35.445-.459.468-.459.1a3.425,3.425,0,0,0-.333-.97,3.546,3.546,0,0,0-2.651-2.131,3.057,3.057,0,0,1-2.252-1.095c-.192-.325-.335-.392-.335-.156,0,.26-.583.819-1.069,1.024a4.736,4.736,0,0,1-1.123.267c-.632.065-.662.057-1.1-.275a2.306,2.306,0,0,1-1.064-1.812,1.455,1.455,0,0,1,.167-1.048l.22-.391-.28-.107a9.653,9.653,0,0,0-2.839.08,4.689,4.689,0,0,1-.846.32c-1.213.37-1.161.262-1.193,2.506a35.124,35.124,0,0,1-.375,5.606,4.886,4.886,0,0,1-1.467,2.5c-.4.381-.855.79-1.019.909l-.3.217,1.094.016c.926.014,4.261.107,6.092.171a2.752,2.752,0,0,0,.521-.007ZM65.793,19.222a19.766,19.766,0,0,1-1.645-3.208c-.187-.41-.619-1.233-.961-1.828s-.622-1.1-.622-1.126a20.9,20.9,0,0,0-1.84-2.034c-.8-.767-2.039-1.634-2.039-1.426,0,.155.206,2.022.4,3.629a9.85,9.85,0,0,0,.685,2.582,1.048,1.048,0,0,0,.258-.315,1.957,1.957,0,0,1,2.293-.548,2.2,2.2,0,0,1,.626,3.32c-.113.12-.173.268-.135.33a8.116,8.116,0,0,0,3.064,1.09l.278.006-.362-.472Zm18.289.272a6.775,6.775,0,0,0,2.108-.9c.038-.062-.023-.21-.135-.33a2.2,2.2,0,0,1,.626-3.32,1.957,1.957,0,0,1,2.293.548,1.048,1.048,0,0,0,.258.315,9.85,9.85,0,0,0,.685-2.582c.194-1.607.4-3.474.4-3.629,0-.208-1.24.659-2.039,1.426a20.9,20.9,0,0,0-1.84,2.034c0,.024-.28.531-.622,1.126s-.775,1.418-.961,1.828a19.766,19.766,0,0,1-1.645,3.208c-.353.46-.356.472-.128.472a6.5,6.5,0,0,0,1-.2ZM55.533,4.841A6.41,6.41,0,0,0,53.4,2.813c-.4-.167-.382-.176-.362.2a2.21,2.21,0,0,1-.061.6c-.062.218-.045.274.085.274a9.057,9.057,0,0,1,2.046.865c.39.258.547.294.429.1Zm38.366-.1a9.057,9.057,0,0,1,2.046-.865c.129,0,.147-.055.085-.274a2.21,2.21,0,0,1-.061-.6c.02-.371.035-.363-.362-.2a5.522,5.522,0,0,0-1.661,1.4c-.668.836-.677.95-.046.532Z" transform="translate(150.499 230)" fill="#ffb13b"/>
      </g>
      <path id="path4691-2" data-name="path4691" d="M64.073,36.825a2.961,2.961,0,0,1-.639-.4,3.793,3.793,0,0,1-.869-1.46c0-.192.343-.16.874.084a2.324,2.324,0,0,0,1.136.214,1.449,1.449,0,0,0,1.194-.369,3.39,3.39,0,0,0,.743-.7,5,5,0,0,0,.231-3.485A16.465,16.465,0,0,0,65.627,27.6a13.808,13.808,0,0,1-.7-2.523l-.031-.3-.122.257a19.1,19.1,0,0,1-5.944,6.08A2.589,2.589,0,0,0,57.436,32.5a6.053,6.053,0,0,1-1.778,2.1A4.725,4.725,0,0,1,53.1,35.779a1.971,1.971,0,0,1-1.875-.395.752.752,0,0,1-.345-.729,1.994,1.994,0,0,0-.023-.424c-.013,0-.192.055-.4.122a13.819,13.819,0,0,1-2.712.44A46.37,46.37,0,0,1,40.286,35a1.267,1.267,0,0,0-.442-.086c-.14,0-.826-.093-1.523-.207s-1.437-.231-1.642-.261c-.345-.05-.373-.076-.373-.344,0-.335.037-.35,1.044-.435a3.182,3.182,0,0,0,.814-.14,4.624,4.624,0,0,1,.928-.2,5.068,5.068,0,0,0,2.55-1.145,3.361,3.361,0,0,1,.631-.227l.517-.145-.956-.283a14.882,14.882,0,0,1-2.345-.849,2.631,2.631,0,0,0-.5-.211,26.728,26.728,0,0,1-3.432-1.449l-.4-.238-1.045.864a24.246,24.246,0,0,1-6.908,3.963c-.768.3-1.474.582-1.568.627a20.122,20.122,0,0,1-2.678.647,22.074,22.074,0,0,1-6.7.332,18.322,18.322,0,0,1-3.4-.916c-.373-.256.29-.276,1.8-.054a3.84,3.84,0,0,0,2.992-.9,4.722,4.722,0,0,1,1.343-.665,4.859,4.859,0,0,1,2.105-.128l.261.071-.049-.592c-.082-.984.3-1.4,1.425-1.532.47-.055.987.079,1.076.279.105.236.209.115.21-.243a1.65,1.65,0,0,1,.948-1.275,1.412,1.412,0,0,1,.995-.062,3.672,3.672,0,0,1,.87.216c.209.113.245.1.464-.12a2.615,2.615,0,0,1,1.706-.5,1.777,1.777,0,0,1,.633.271,1.974,1.974,0,0,1,.7,1.242c0,.291.084.305.425.075a1.176,1.176,0,0,1,.319-.171,4.61,4.61,0,0,0,.662-.407c.327-.224.759-.514.958-.646a10.571,10.571,0,0,0,1.316-1.032c0-.02-.593-.3-1.318-.613s-1.452-.644-1.616-.727a3.244,3.244,0,0,0-.547-.214,1.388,1.388,0,0,1-.4-.172A9.731,9.731,0,0,0,29,25.925c-3.591-1.318-5.618-1.686-7.265-1.317-.689.154-.85.254-.544.338.261.071.5.52.5.94,0,.437-.44.666-1.188.618a.947.947,0,0,1-.824-.326c-.849-.874-.437-1.88,1.008-2.463.538-.217.614-.224,2.4-.221a15.934,15.934,0,0,1,4.51.512,2.728,2.728,0,0,0,.736.091c.03-.026-.069-.208-.22-.4a3.043,3.043,0,0,1-.582-1.949c.069-.227.186-.227.405,0a6.022,6.022,0,0,0,1.177.59,3.971,3.971,0,0,1,1.309.731c.321.335.522.337.522,0s.23-.425.609-.257a2.048,2.048,0,0,1,.508.326,27.456,27.456,0,0,1,1.657,2.321,7.8,7.8,0,0,0,.936.874l.838.7.3-.36a13.1,13.1,0,0,1,1.282-1.284,8.183,8.183,0,0,0,.633-.658,4.459,4.459,0,0,1,.411-.442c.092-.079.594-.606,1.115-1.17s1.032-1.1,1.136-1.184a5.664,5.664,0,0,0,.57-.66,2.81,2.81,0,0,1,.649-.642,8.909,8.909,0,0,0,.933-.676l.667-.537-2.558.007c-2.376.007-2.587.02-2.959.183a2.92,2.92,0,0,0-.553.307,2.727,2.727,0,0,1-1.353.469,1.026,1.026,0,0,1-.745-.795c0-.493.543-.476-9.547-.286-1.394.026-2.572.067-2.617.091s-.053.245-.017.491a2.2,2.2,0,0,1-.494,1.634,3.1,3.1,0,0,1-3.011.184,1.554,1.554,0,0,1-.572-2.171c.088-.116.135-.233.1-.259a3.926,3.926,0,0,0-.9.093c-.462.078-.943.142-1.07.142a1.591,1.591,0,0,0-.529.136,7.032,7.032,0,0,1-.995.294c-.383.087-.853.2-1.044.261l-.788.232a9.169,9.169,0,0,0-1.116.459,5.379,5.379,0,0,1-.764.33,2.006,2.006,0,0,0-.476.239,8.3,8.3,0,0,1-.836.436,5.041,5.041,0,0,0-1.29.791,2.409,2.409,0,0,0,1.076.121A19.315,19.315,0,0,1,14,23.526a20.192,20.192,0,0,1,3.744,1.581A9.858,9.858,0,0,1,20.2,27.385a3.909,3.909,0,0,1,.262.941,1.724,1.724,0,0,1-.083,1.28,2.409,2.409,0,0,1-3.1,1.426,1.474,1.474,0,0,1-1.164-1.445,1.49,1.49,0,0,1,1.291-1.175,1.214,1.214,0,0,1,1.058.568.561.561,0,0,1,0,.645c-.122.268-.125.328-.016.328.182,0,.51-.373.651-.742.342-.891-.616-2.329-1.875-2.815-1.321-.51-1.684-.536-6.081-.439a7.172,7.172,0,0,1-2.335-.075c-.378-.228-.426-.16-.386.541.042.73.056.7-.544,1.155A1.151,1.151,0,0,1,7,27.9c-.4,0-.448.019-.381.15a1.889,1.889,0,0,1-.507,2.067c-.362.274-.512.287-1.414.13-.207-.036-.224-.008-.228.369A2.679,2.679,0,0,1,3.9,32.323a5.117,5.117,0,0,0-.473.8,1.221,1.221,0,0,1-.282.412c-.165.155-.219.335-.247.821a1.781,1.781,0,0,0,.761,1.67c.447.413.68.75.579.837-.122.1-.769-.254-1.36-.755a5.568,5.568,0,0,1-1.575-2.357A3.747,3.747,0,0,1,1,31.862,5.7,5.7,0,0,1,1.3,29.737a11.02,11.02,0,0,1,.5-1.384,2.472,2.472,0,0,0,.19-.414,16.273,16.273,0,0,1,2.118-3.378,16.188,16.188,0,0,1,4.606-3.473c.377-.175,1-.468,1.382-.65.943-.449,2.441-1.066,3.183-1.311.372-.123.258-.129-1.741-.086-6.173.132-6.671.162-7.153.423a1.162,1.162,0,0,0-.489.47c-.1.246-.138.262-.609.262-.75,0-.976-.252-.9-1.008.018-.191,0-.194-.9-.171l-.92.024-.085-.278a1.106,1.106,0,0,1,0-.556l.085-.278.92.024c.9.023.919.02.9-.171-.072-.756.154-1.008.9-1.008.471,0,.509.016.609.262a1.162,1.162,0,0,0,.489.47c.482.262.98.291,7.153.423,2,.043,2.112.037,1.741-.086-.742-.245-2.239-.862-3.183-1.311-.383-.182-1-.475-1.382-.65a16.187,16.187,0,0,1-4.606-3.473A16.273,16.273,0,0,1,1.99,9.031a2.475,2.475,0,0,0-.19-.414,11.021,11.021,0,0,1-.5-1.384A5.7,5.7,0,0,1,1,5.107a3.747,3.747,0,0,1,.31-1.885A5.568,5.568,0,0,1,2.881.866c.591-.5,1.238-.86,1.36-.755.1.087-.131.425-.579.837A1.781,1.781,0,0,0,2.9,2.618c.029.486.083.666.247.821a1.221,1.221,0,0,1,.282.412,5.117,5.117,0,0,0,.473.8,2.679,2.679,0,0,1,.569,1.709c0,.377.021.405.228.369.9-.157,1.052-.144,1.414.13a1.889,1.889,0,0,1,.507,2.067c-.067.131-.019.15.381.15a1.151,1.151,0,0,1,.881.321c.6.455.586.426.544,1.155-.04.7.008.769.386.541a7.172,7.172,0,0,1,2.335-.075c4.4.1,4.76.07,6.081-.439,1.259-.486,2.217-1.923,1.875-2.815-.141-.369-.469-.742-.651-.742-.11,0-.107.06.016.328a.561.561,0,0,1,0,.645,1.214,1.214,0,0,1-1.058.568,1.49,1.49,0,0,1-1.291-1.175,1.474,1.474,0,0,1,1.164-1.445,2.409,2.409,0,0,1,3.1,1.426,1.724,1.724,0,0,1,.083,1.28,3.909,3.909,0,0,1-.262.941,9.858,9.858,0,0,1-2.456,2.278A20.191,20.191,0,0,1,14,13.444a19.314,19.314,0,0,1-3.864.715,2.409,2.409,0,0,0-1.076.121,5.041,5.041,0,0,0,1.29.791,8.3,8.3,0,0,1,.836.436,2.006,2.006,0,0,0,.476.239,5.379,5.379,0,0,1,.764.33,9.17,9.17,0,0,0,1.116.459l.788.232c.191.056.661.174,1.044.261a7.032,7.032,0,0,1,.995.294,1.592,1.592,0,0,0,.529.136c.127,0,.608.064,1.07.142a3.927,3.927,0,0,0,.9.093c.031-.027-.015-.144-.1-.259a1.554,1.554,0,0,1,.572-2.171,3.1,3.1,0,0,1,3.011.184,2.2,2.2,0,0,1,.494,1.633c-.036.246-.028.467.017.491s1.223.065,2.617.091c10.09.19,9.547.206,9.547-.286a1.026,1.026,0,0,1,.745-.795,2.727,2.727,0,0,1,1.353.469,2.92,2.92,0,0,0,.553.307c.373.164.583.177,2.959.183l2.558.007-.667-.537a8.909,8.909,0,0,0-.933-.676,2.809,2.809,0,0,1-.649-.642,5.664,5.664,0,0,0-.57-.66c-.1-.087-.615-.619-1.136-1.184s-1.023-1.091-1.115-1.17a4.459,4.459,0,0,1-.411-.442,8.184,8.184,0,0,0-.633-.658,13.1,13.1,0,0,1-1.282-1.284l-.3-.36-.838.7a7.8,7.8,0,0,0-.936.874,27.459,27.459,0,0,1-1.657,2.321,2.048,2.048,0,0,1-.508.326c-.378.168-.609.071-.609-.257s-.2-.331-.522,0a3.971,3.971,0,0,1-1.309.731,6.022,6.022,0,0,0-1.177.59c-.22.226-.336.225-.405,0a3.043,3.043,0,0,1,.582-1.949c.151-.2.25-.378.22-.4a2.728,2.728,0,0,0-.736.091,15.934,15.934,0,0,1-4.51.512c-1.782,0-1.858,0-2.4-.221-1.446-.583-1.857-1.589-1.008-2.463a.947.947,0,0,1,.824-.326c.747-.048,1.188.182,1.188.618,0,.42-.238.869-.5.94-.306.083-.145.183.544.338,1.647.369,3.674,0,7.265-1.317a9.731,9.731,0,0,0,1.144-.474,1.388,1.388,0,0,1,.4-.172,3.244,3.244,0,0,0,.547-.214c.164-.083.891-.41,1.616-.727s1.318-.592,1.318-.613A10.567,10.567,0,0,0,32.7,7.813c-.2-.131-.631-.422-.958-.646a4.612,4.612,0,0,0-.662-.406,1.176,1.176,0,0,1-.319-.171c-.341-.231-.425-.216-.425.075a1.974,1.974,0,0,1-.7,1.242A1.777,1.777,0,0,1,29,8.177a2.615,2.615,0,0,1-1.706-.5c-.219-.224-.254-.233-.464-.12a3.671,3.671,0,0,1-.87.216,1.412,1.412,0,0,1-.995-.062,1.65,1.65,0,0,1-.948-1.275c0-.358-.1-.479-.21-.243-.089.2-.606.334-1.076.279-1.12-.132-1.507-.548-1.425-1.532l.049-.592-.261.071a4.859,4.859,0,0,1-2.105-.128,4.723,4.723,0,0,1-1.343-.665,3.84,3.84,0,0,0-2.992-.9c-1.513.222-2.175.2-1.8-.054a18.323,18.323,0,0,1,3.4-.916,22.074,22.074,0,0,1,6.7.332,20.123,20.123,0,0,1,2.678.647c.094.045.8.327,1.568.627a24.246,24.246,0,0,1,6.908,3.963l1.045.864.4-.238A26.727,26.727,0,0,1,38.992,6.5a2.632,2.632,0,0,0,.5-.211,14.878,14.878,0,0,1,2.345-.849l.956-.283-.517-.145a3.361,3.361,0,0,1-.631-.227,5.068,5.068,0,0,0-2.55-1.145,4.623,4.623,0,0,1-.928-.2,3.184,3.184,0,0,0-.814-.14c-1.007-.085-1.044-.1-1.044-.435,0-.268.028-.294.373-.344.205-.03.944-.147,1.642-.261s1.383-.207,1.523-.207a1.267,1.267,0,0,0,.442-.086,46.37,46.37,0,0,1,7.458.208,13.819,13.819,0,0,1,2.712.44c.206.067.385.122.4.122a2,2,0,0,0,.023-.424.752.752,0,0,1,.345-.729A1.971,1.971,0,0,1,53.1,1.19a4.725,4.725,0,0,1,2.559,1.185,6.053,6.053,0,0,1,1.778,2.1,2.589,2.589,0,0,0,1.392,1.384,19.1,19.1,0,0,1,5.944,6.08l.122.257.031-.3a13.808,13.808,0,0,1,.7-2.523,16.465,16.465,0,0,0,1.117-3.106,5,5,0,0,0-.231-3.485,3.39,3.39,0,0,0-.743-.7,1.449,1.449,0,0,0-1.194-.369,2.324,2.324,0,0,0-1.136.214c-.531.243-.874.276-.874.084A3.79,3.79,0,0,1,63.436.547,2.4,2.4,0,0,1,65.328,0c1.249,0,1.7.175,2.17.837.15.213.224.26.265.169A1.627,1.627,0,0,1,68.29.644,1.117,1.117,0,0,1,69.318.513a1.819,1.819,0,0,1,1.018.5,1.532,1.532,0,0,1-.482,2.745,1.033,1.033,0,0,1-.771-.024L68.633,3.6l0,.316a14.029,14.029,0,0,1-.583,2.651c-.286.459-.063.34.347-.185A16.194,16.194,0,0,1,71.044,4,25.824,25.824,0,0,1,73.93,2.353L74.5,2.1l.571.257A25.823,25.823,0,0,1,77.959,4a16.193,16.193,0,0,1,2.65,2.388c.41.525.632.644.347.185a14.028,14.028,0,0,1-.583-2.651l0-.316-.451.132a1.353,1.353,0,0,1-1.4-.336c-1.064-.855-.359-2.6,1.169-2.888a1.117,1.117,0,0,1,1.028.131,1.627,1.627,0,0,1,.527.363c.04.091.115.043.265-.169C81.972.175,82.425,0,83.674,0a2.4,2.4,0,0,1,1.892.547,3.791,3.791,0,0,1,.871,1.462c0,.192-.343.16-.874-.084a2.324,2.324,0,0,0-1.136-.214,1.449,1.449,0,0,0-1.194.369,3.39,3.39,0,0,0-.743.7,5,5,0,0,0-.231,3.485,16.465,16.465,0,0,0,1.117,3.106,13.808,13.808,0,0,1,.7,2.523l.031.3.122-.257a19.1,19.1,0,0,1,5.944-6.08,2.589,2.589,0,0,0,1.392-1.384,6.053,6.053,0,0,1,1.778-2.1A4.725,4.725,0,0,1,95.9,1.19a1.971,1.971,0,0,1,1.875.395.752.752,0,0,1,.345.729,2,2,0,0,0,.023.424c.013,0,.192-.055.4-.122a13.819,13.819,0,0,1,2.712-.44,46.37,46.37,0,0,1,7.458-.208,1.267,1.267,0,0,0,.442.086c.14,0,.826.093,1.523.207s1.437.231,1.642.261c.345.05.373.076.373.344,0,.335-.037.35-1.044.435a3.183,3.183,0,0,0-.814.14,4.623,4.623,0,0,1-.928.2,5.068,5.068,0,0,0-2.55,1.145,3.361,3.361,0,0,1-.631.227l-.517.145.956.283a14.878,14.878,0,0,1,2.345.849,2.631,2.631,0,0,0,.5.211,26.727,26.727,0,0,1,3.432,1.449l.4.238,1.045-.864a24.246,24.246,0,0,1,6.908-3.963c.768-.3,1.474-.582,1.568-.627a20.123,20.123,0,0,1,2.678-.647,22.074,22.074,0,0,1,6.7-.332,18.323,18.323,0,0,1,3.4.916c.373.256-.29.276-1.8.054a3.84,3.84,0,0,0-2.992.9,4.722,4.722,0,0,1-1.343.665,4.859,4.859,0,0,1-2.105.128l-.261-.071.049.592c.082.984-.3,1.4-1.425,1.532-.47.055-.987-.079-1.076-.279-.105-.236-.209-.115-.21.243a1.65,1.65,0,0,1-.948,1.275,1.412,1.412,0,0,1-.995.062,3.671,3.671,0,0,1-.87-.216c-.209-.113-.245-.1-.464.12a2.615,2.615,0,0,1-1.706.5,1.778,1.778,0,0,1-.633-.271,1.973,1.973,0,0,1-.7-1.242c0-.291-.085-.305-.425-.075a1.176,1.176,0,0,1-.319.171,4.61,4.61,0,0,0-.662.406c-.327.224-.759.514-.958.646a10.567,10.567,0,0,0-1.316,1.032c0,.02.593.3,1.318.613s1.452.644,1.616.727a3.244,3.244,0,0,0,.547.214,1.387,1.387,0,0,1,.4.172,9.73,9.73,0,0,0,1.144.474c3.591,1.318,5.618,1.686,7.265,1.317.689-.154.85-.254.544-.338-.261-.071-.5-.52-.5-.94,0-.437.44-.666,1.188-.618a.947.947,0,0,1,.824.326c.849.874.437,1.88-1.008,2.463-.538.217-.614.224-2.4.221a15.934,15.934,0,0,1-4.51-.512,2.728,2.728,0,0,0-.736-.091c-.03.026.069.208.22.4a3.043,3.043,0,0,1,.582,1.949c-.069.227-.186.227-.405,0a6.022,6.022,0,0,0-1.177-.59,3.971,3.971,0,0,1-1.309-.731c-.321-.335-.522-.337-.522,0s-.23.425-.609.257a2.049,2.049,0,0,1-.508-.326,27.457,27.457,0,0,1-1.657-2.321,7.8,7.8,0,0,0-.936-.874l-.838-.7-.3.36a13.1,13.1,0,0,1-1.282,1.284,8.182,8.182,0,0,0-.633.658,4.46,4.46,0,0,1-.411.442c-.092.079-.594.606-1.115,1.17s-1.032,1.1-1.136,1.184a5.664,5.664,0,0,0-.57.66,2.809,2.809,0,0,1-.649.642,8.908,8.908,0,0,0-.933.676l-.667.537,2.558-.007c2.376-.007,2.587-.02,2.959-.183a2.92,2.92,0,0,0,.553-.307,2.727,2.727,0,0,1,1.353-.469,1.026,1.026,0,0,1,.745.795c0,.493-.543.476,9.547.286,1.394-.026,2.572-.067,2.617-.091s.053-.245.017-.491a2.2,2.2,0,0,1,.494-1.634,3.1,3.1,0,0,1,3.011-.184,1.554,1.554,0,0,1,.572,2.171c-.088.116-.135.233-.1.259a3.927,3.927,0,0,0,.9-.093c.462-.078.943-.142,1.07-.142a1.591,1.591,0,0,0,.529-.136,7.033,7.033,0,0,1,.995-.294c.383-.087.853-.2,1.044-.261l.788-.232a9.171,9.171,0,0,0,1.116-.459,5.377,5.377,0,0,1,.764-.33,2.007,2.007,0,0,0,.476-.239,8.3,8.3,0,0,1,.836-.436,5.041,5.041,0,0,0,1.29-.791,2.409,2.409,0,0,0-1.076-.121,19.314,19.314,0,0,1-3.864-.715,20.192,20.192,0,0,1-3.744-1.581,9.858,9.858,0,0,1-2.456-2.278,3.909,3.909,0,0,1-.262-.941,1.724,1.724,0,0,1,.083-1.28,2.409,2.409,0,0,1,3.1-1.426,1.474,1.474,0,0,1,1.164,1.445A1.49,1.49,0,0,1,131.6,8.558a1.214,1.214,0,0,1-1.058-.568.561.561,0,0,1,0-.645c.123-.268.125-.328.015-.328-.182,0-.51.373-.651.742-.342.892.616,2.329,1.875,2.815,1.321.51,1.684.536,6.081.439a7.172,7.172,0,0,1,2.335.075c.378.228.426.16.386-.541-.042-.73-.056-.7.544-1.155A1.151,1.151,0,0,1,142,9.071c.4,0,.448-.019.381-.15a1.889,1.889,0,0,1,.507-2.067c.362-.273.512-.287,1.414-.13.207.036.224.008.228-.369a2.679,2.679,0,0,1,.569-1.709,5.119,5.119,0,0,0,.473-.8,1.221,1.221,0,0,1,.282-.412c.165-.155.219-.335.247-.821a1.781,1.781,0,0,0-.761-1.67c-.447-.413-.68-.75-.579-.837.122-.1.769.254,1.36.755A5.568,5.568,0,0,1,147.7,3.223a3.747,3.747,0,0,1,.31,1.885,5.7,5.7,0,0,1-.307,2.126,11.019,11.019,0,0,1-.5,1.384,2.476,2.476,0,0,0-.19.414,16.272,16.272,0,0,1-2.118,3.378,16.188,16.188,0,0,1-4.606,3.473c-.377.175-1,.468-1.382.65-.943.449-2.441,1.066-3.183,1.311-.372.123-.258.129,1.741.086,6.173-.132,6.671-.162,7.153-.423a1.162,1.162,0,0,0,.489-.47c.1-.246.138-.262.609-.262.75,0,.976.252.9,1.008-.018.191,0,.194.9.171l.92-.024.085.278a1.106,1.106,0,0,1,0,.556l-.085.278-.92-.024c-.9-.023-.919-.02-.9.171.072.756-.154,1.008-.9,1.008-.471,0-.509-.016-.609-.262a1.162,1.162,0,0,0-.489-.47c-.482-.262-.98-.291-7.153-.423-2-.043-2.112-.037-1.741.086.742.245,2.239.862,3.183,1.311.383.182,1,.475,1.382.65a16.188,16.188,0,0,1,4.606,3.473,16.272,16.272,0,0,1,2.118,3.378,2.475,2.475,0,0,0,.19.414,11.019,11.019,0,0,1,.5,1.384,5.7,5.7,0,0,1,.307,2.126,3.746,3.746,0,0,1-.31,1.885,5.568,5.568,0,0,1-1.575,2.357c-.591.5-1.238.86-1.36.755-.1-.087.131-.425.579-.837a1.781,1.781,0,0,0,.761-1.67c-.029-.486-.083-.666-.247-.821a1.221,1.221,0,0,1-.282-.412,5.118,5.118,0,0,0-.473-.8,2.679,2.679,0,0,1-.569-1.709c0-.377-.021-.405-.228-.369-.9.157-1.052.144-1.414-.13a1.889,1.889,0,0,1-.507-2.067c.067-.131.019-.15-.381-.15a1.151,1.151,0,0,1-.881-.321c-.6-.455-.586-.426-.544-1.155.04-.7-.008-.769-.386-.541a7.172,7.172,0,0,1-2.335.075c-4.4-.1-4.76-.07-6.081.439-1.259.486-2.217,1.923-1.875,2.815.141.369.469.742.651.742.11,0,.107-.06-.016-.328a.561.561,0,0,1,0-.645,1.214,1.214,0,0,1,1.058-.568,1.49,1.49,0,0,1,1.291,1.175,1.474,1.474,0,0,1-1.164,1.445,2.409,2.409,0,0,1-3.1-1.426,1.724,1.724,0,0,1-.083-1.28,3.909,3.909,0,0,1,.262-.941,9.857,9.857,0,0,1,2.456-2.278,20.191,20.191,0,0,1,3.744-1.581,19.314,19.314,0,0,1,3.864-.715,2.409,2.409,0,0,0,1.076-.121,5.042,5.042,0,0,0-1.29-.791,8.3,8.3,0,0,1-.836-.436,2.006,2.006,0,0,0-.476-.239,5.379,5.379,0,0,1-.764-.33,9.172,9.172,0,0,0-1.116-.459l-.788-.232c-.191-.056-.661-.174-1.044-.261a7.032,7.032,0,0,1-.995-.294,1.592,1.592,0,0,0-.529-.136c-.127,0-.608-.064-1.07-.142a3.927,3.927,0,0,0-.9-.093c-.031.027.015.144.1.259a1.554,1.554,0,0,1-.572,2.171,3.1,3.1,0,0,1-3.011-.184,2.2,2.2,0,0,1-.494-1.633c.036-.246.028-.467-.017-.491s-1.223-.065-2.617-.091c-10.091-.19-9.547-.206-9.547.286a1.026,1.026,0,0,1-.745.795,2.727,2.727,0,0,1-1.353-.469,2.919,2.919,0,0,0-.553-.307c-.373-.164-.583-.177-2.959-.183l-2.558-.007.667.537a8.909,8.909,0,0,0,.933.676,2.809,2.809,0,0,1,.649.642,5.666,5.666,0,0,0,.57.66c.1.087.615.619,1.136,1.184s1.023,1.091,1.115,1.17a4.459,4.459,0,0,1,.411.442,8.183,8.183,0,0,0,.633.658,13.1,13.1,0,0,1,1.282,1.284l.3.36.838-.7a7.8,7.8,0,0,0,.936-.874,27.456,27.456,0,0,1,1.657-2.321,2.049,2.049,0,0,1,.508-.326c.378-.168.609-.071.609.257s.2.331.522,0a3.971,3.971,0,0,1,1.309-.731,6.021,6.021,0,0,0,1.177-.59c.22-.226.336-.225.405,0a3.043,3.043,0,0,1-.582,1.949c-.151.2-.25.378-.22.4a2.728,2.728,0,0,0,.736-.091,15.935,15.935,0,0,1,4.51-.512c1.782,0,1.858,0,2.4.221,1.446.583,1.857,1.589,1.008,2.463a.947.947,0,0,1-.824.326c-.747.048-1.188-.182-1.188-.618,0-.42.238-.869.5-.94.306-.083.145-.183-.544-.338-1.646-.369-3.674,0-7.265,1.317a9.73,9.73,0,0,0-1.144.474,1.388,1.388,0,0,1-.4.172,3.245,3.245,0,0,0-.547.214c-.164.083-.891.41-1.616.727s-1.318.592-1.318.613a10.565,10.565,0,0,0,1.316,1.032c.2.132.631.422.958.646a4.61,4.61,0,0,0,.662.406,1.176,1.176,0,0,1,.319.171c.341.231.425.216.425-.075a1.974,1.974,0,0,1,.7-1.242,1.777,1.777,0,0,1,.633-.271,2.615,2.615,0,0,1,1.706.5c.219.224.254.233.464.12a3.671,3.671,0,0,1,.87-.216,1.412,1.412,0,0,1,.995.062,1.65,1.65,0,0,1,.948,1.275c0,.358.1.479.21.243.089-.2.606-.334,1.076-.279,1.12.132,1.507.548,1.425,1.532l-.049.592.261-.071a4.859,4.859,0,0,1,2.105.128,4.723,4.723,0,0,1,1.343.665,3.84,3.84,0,0,0,2.992.9c1.513-.222,2.175-.2,1.8.054a18.323,18.323,0,0,1-3.4.916,22.074,22.074,0,0,1-6.7-.332,20.12,20.12,0,0,1-2.678-.647c-.094-.045-.8-.327-1.568-.627a24.246,24.246,0,0,1-6.908-3.963l-1.045-.864-.4.238a26.728,26.728,0,0,1-3.432,1.449,2.631,2.631,0,0,0-.5.211,14.878,14.878,0,0,1-2.345.849l-.956.283.517.145a3.361,3.361,0,0,1,.631.227,5.068,5.068,0,0,0,2.55,1.145,4.623,4.623,0,0,1,.928.2,3.183,3.183,0,0,0,.814.14c1.007.084,1.044.1,1.044.435,0,.268-.028.294-.373.344-.205.03-.944.147-1.642.261s-1.383.207-1.523.207a1.267,1.267,0,0,0-.442.086,46.37,46.37,0,0,1-7.458-.208,13.819,13.819,0,0,1-2.712-.44c-.206-.067-.385-.122-.4-.122a2,2,0,0,0-.023.424.752.752,0,0,1-.345.729,1.971,1.971,0,0,1-1.875.395,4.725,4.725,0,0,1-2.559-1.185,6.053,6.053,0,0,1-1.778-2.1,2.589,2.589,0,0,0-1.392-1.384,19.105,19.105,0,0,1-5.944-6.08l-.122-.257-.031.3a13.807,13.807,0,0,1-.7,2.523A16.465,16.465,0,0,0,82.259,30.7a5,5,0,0,0,.231,3.485,3.39,3.39,0,0,0,.743.7,1.449,1.449,0,0,0,1.194.369,2.324,2.324,0,0,0,1.136-.214c.531-.243.874-.276.874-.084a3.79,3.79,0,0,1-.871,1.462,2.4,2.4,0,0,1-1.892.547c-1.249,0-1.7-.175-2.17-.837-.15-.213-.224-.26-.265-.169a1.627,1.627,0,0,1-.527.363,1.117,1.117,0,0,1-1.028.131,1.819,1.819,0,0,1-1.018-.5,1.532,1.532,0,0,1,.482-2.745,1.033,1.033,0,0,1,.771.024l.451.132,0-.316a14.028,14.028,0,0,1,.583-2.651c.286-.459.063-.34-.347.185a16.194,16.194,0,0,1-2.65,2.388,25.823,25.823,0,0,1-2.886,1.644l-.571.257-.571-.257a25.824,25.824,0,0,1-2.886-1.644,16.194,16.194,0,0,1-2.65-2.388c-.41-.525-.632-.645-.347-.185a14.029,14.029,0,0,1,.583,2.651l0,.316.451-.132a1.353,1.353,0,0,1,1.4.336c1.064.855.359,2.6-1.169,2.888a1.117,1.117,0,0,1-1.028-.131,1.628,1.628,0,0,1-.527-.363c-.04-.091-.115-.043-.265.169a1.564,1.564,0,0,1-.9.7,5.666,5.666,0,0,1-2.523-.01ZM53.4,34.55a4.513,4.513,0,0,0,.783-.442c.5-.345,1.463-1.326,1.377-1.4a.976.976,0,0,0-.424.167,10.1,10.1,0,0,1-2.074.757c-.129,0-.147.048-.085.235a1.647,1.647,0,0,1,.061.513c-.02.32-.035.312.362.169Zm42.573-.168a1.647,1.647,0,0,1,.061-.513c.062-.188.045-.235-.085-.235a10.1,10.1,0,0,1-2.074-.757.976.976,0,0,0-.424-.167c-.086.074.88,1.055,1.38,1.4a3.186,3.186,0,0,0,1.085.543c.041,0,.067-.118.058-.271ZM71.816,31.055a2.5,2.5,0,0,1,1.113-1.362c.388-.191.538-.211,1.573-.211s1.185.02,1.573.211a2.5,2.5,0,0,1,1.113,1.362c0,.1.021.181.048.181a8.237,8.237,0,0,0,1.9-1.378c1.734-1.851,2.437-2.911,2.839-4.276a4.213,4.213,0,0,0,.159-1.745,4.732,4.732,0,0,0-.827-2.627c-.293-.5-.382-.508-.224-.024a4.429,4.429,0,0,1-1.865,4.7,5.412,5.412,0,0,1-1.492.972c-.378.157-.766.32-.861.362-.228.1-.673.1-.673,0,0-.044.1-.141.221-.214a2.8,2.8,0,0,0,.979-1.18c.111-.356.056-.782-.263-2.034-.281-1.1-.015-2.618.521-2.969.127-.083.066-.1-.333-.1-.737,0-1.138-.188-2.016-.97l-.8-.712-.8.712c-.878.782-1.279.975-2.016.97-.4,0-.461.015-.333.1.536.351.8,1.866.521,2.969-.319,1.252-.374,1.678-.263,2.034A2.8,2.8,0,0,0,72.589,27c.122.073.221.17.221.214,0,.1-.445.105-.673,0-.095-.042-.482-.205-.861-.362a5.412,5.412,0,0,1-1.492-.972,4.429,4.429,0,0,1-1.865-4.7c.158-.484.069-.474-.224.024a4.732,4.732,0,0,0-.827,2.627,4.213,4.213,0,0,0,.159,1.745,10.309,10.309,0,0,0,2.82,4.257,8.324,8.324,0,0,0,1.894,1.392c.041,0,.075-.076.075-.176ZM54.829,29.976a5.152,5.152,0,0,1,.847-.276c1.213-.319,1.161-.225,1.193-2.156a26.089,26.089,0,0,1,.375-4.823,4.128,4.128,0,0,1,1.467-2.15c.4-.327.855-.679,1.019-.782l.3-.186-.845-.006c-.465,0-2.188-.04-3.828-.082s-2.992-.069-3-.059a5.728,5.728,0,0,0,.628.443,5.654,5.654,0,0,1,1.593,1.325A4.778,4.778,0,0,1,55.6,23.341a3.408,3.408,0,0,1-.4,2.222c-.325.673-.614.683-.747.025a2.019,2.019,0,0,0-.445-1.117.569.569,0,0,1-.194-.251c0-.046-.112-.108-.249-.138s-.249-.107-.249-.173-.04-.119-.089-.119a1.235,1.235,0,0,1-.382-.221,5.561,5.561,0,0,0-1-.5,7.024,7.024,0,0,1-.886-.4,4.346,4.346,0,0,0-.564-.291,2.633,2.633,0,0,1-1.113-1.133c-.057-.182-.238-.274-.238-.122,0,.234-.753.967-1.629,1.587-1.425,1.008-2.151,1.893-2.151,2.622,0,.4-.232.308-.637-.257a3.421,3.421,0,0,1-.048-3.925,1.391,1.391,0,0,0,.255-.5,2.04,2.04,0,0,0-.578.33c-.293.2-.69.469-.881.592A45.039,45.039,0,0,0,39.836,24.6a8.536,8.536,0,0,1-.6.612c-.164.148-.477.45-.7.671a8.723,8.723,0,0,1-1.724,1.558l-.35.188.788.323a5.815,5.815,0,0,1,.847.4,33.007,33.007,0,0,0,3.72,1.262c.383.09.853.2,1.044.252s.369.088.395.088a3.661,3.661,0,0,0-.507-.492,5.244,5.244,0,0,1-1.293-1.647,2.374,2.374,0,0,1-.367-1.484,2.126,2.126,0,0,1,.617-1.961c.35-.383.459-.4.459-.083a2.673,2.673,0,0,0,.333.834,3.507,3.507,0,0,0,2.651,1.834,3.255,3.255,0,0,1,2.252.942c.192.28.335.337.335.135,0-.224.583-.7,1.069-.881a5.383,5.383,0,0,1,1.123-.23c.632-.056.662-.049,1.1.236A1.95,1.95,0,0,1,52.1,28.715a1.106,1.106,0,0,1-.167.9l-.22.337.231.083a12.426,12.426,0,0,0,2.888-.061Zm42.211.059.252-.082-.22-.336a1.106,1.106,0,0,1-.167-.9,1.95,1.95,0,0,1,1.064-1.559c.435-.286.465-.292,1.1-.236a5.384,5.384,0,0,1,1.123.23c.485.177,1.069.657,1.069.881,0,.2.143.145.335-.135a3.254,3.254,0,0,1,2.252-.942,3.507,3.507,0,0,0,2.651-1.834,2.673,2.673,0,0,0,.333-.834c0-.319.109-.3.459.083a2.126,2.126,0,0,1,.617,1.961,2.374,2.374,0,0,1-.367,1.484,5.244,5.244,0,0,1-1.293,1.647,3.662,3.662,0,0,0-.507.492c.026,0,.2-.04.395-.088s.661-.162,1.044-.252a33.006,33.006,0,0,0,3.72-1.262,5.815,5.815,0,0,1,.847-.4l.788-.323-.35-.188a8.723,8.723,0,0,1-1.724-1.558c-.219-.221-.532-.523-.7-.671a8.534,8.534,0,0,1-.6-.612,45.038,45.038,0,0,0-3.533-3.028c-.191-.123-.588-.389-.881-.592a2.04,2.04,0,0,0-.578-.33,1.391,1.391,0,0,0,.255.5,3.421,3.421,0,0,1-.048,3.925c-.405.565-.637.658-.637.257,0-.729-.726-1.614-2.151-2.623-.876-.62-1.629-1.354-1.629-1.587,0-.153-.181-.06-.238.122a2.634,2.634,0,0,1-1.113,1.133,4.346,4.346,0,0,0-.564.291,7.024,7.024,0,0,1-.886.4,5.56,5.56,0,0,0-1,.5,1.236,1.236,0,0,1-.382.221c-.049,0-.089.054-.089.119s-.112.143-.249.173-.249.091-.249.138a.57.57,0,0,1-.194.251,2.019,2.019,0,0,0-.445,1.117c-.133.658-.422.648-.747-.025a3.408,3.408,0,0,1-.4-2.222,4.777,4.777,0,0,1,1.025-2.117A5.654,5.654,0,0,1,96.022,19.9a5.729,5.729,0,0,0,.628-.443c-.011-.01-1.362.017-3,.059s-3.363.079-3.828.082l-.845.006.3.186c.164.1.623.454,1.019.782a4.128,4.128,0,0,1,1.467,2.15,26.088,26.088,0,0,1,.375,4.823c.032,1.931-.019,1.838,1.193,2.156a5.956,5.956,0,0,1,.819.256,9.456,9.456,0,0,0,2.894.079ZM60.725,27.484a19.24,19.24,0,0,0,1.84-1.75c0-.021.28-.457.622-.969s.775-1.22.961-1.573a16.332,16.332,0,0,1,1.645-2.76c.353-.4.356-.406.128-.406a9.264,9.264,0,0,0-3.108.943c-.038.053.023.181.135.284a1.751,1.751,0,0,1-.626,2.857,2.171,2.171,0,0,1-2.293-.471.954.954,0,0,0-.258-.271,7.577,7.577,0,0,0-.685,2.222c-.194,1.383-.4,2.989-.4,3.122,0,.179,1.24-.567,2.039-1.227Zm29.449.014a14.455,14.455,0,0,0-.623-3.386,3.06,3.06,0,0,0-.32-.746.954.954,0,0,0-.258.271,2.171,2.171,0,0,1-2.293.471,1.751,1.751,0,0,1-.626-2.857c.113-.1.173-.231.135-.284a9.262,9.262,0,0,0-3.108-.943c-.228,0-.225.01.128.407a16.333,16.333,0,0,1,1.645,2.76c.187.353.619,1.061.961,1.573s.622.948.622.969a19.228,19.228,0,0,0,1.84,1.75A10.705,10.705,0,0,0,90.3,28.792a11.465,11.465,0,0,0-.128-1.295ZM75.333,17.2a2.571,2.571,0,0,1,1.983-.95c.4,0,.461-.015.333-.1-.536-.351-.8-1.866-.521-2.969.319-1.252.374-1.678.263-2.034a2.8,2.8,0,0,0-.979-1.18c-.122-.073-.221-.17-.221-.214,0-.1.445-.105.673,0,.095.042.482.205.861.362a5.412,5.412,0,0,1,1.492.972A4.73,4.73,0,0,1,81.2,14.719a4.684,4.684,0,0,1-.117,1.065c-.158.484-.069.474.224-.024a4.732,4.732,0,0,0,.827-2.627,4.213,4.213,0,0,0-.159-1.745c-.4-1.365-1.1-2.425-2.839-4.276a8.237,8.237,0,0,0-1.9-1.378c-.026,0-.048.082-.048.181a2.5,2.5,0,0,1-1.113,1.362c-.388.191-.539.211-1.573.211s-1.185-.02-1.573-.211a2.5,2.5,0,0,1-1.113-1.362c0-.1-.021-.181-.048-.181a8.237,8.237,0,0,0-1.9,1.378c-1.734,1.851-2.437,2.911-2.839,4.276a4.213,4.213,0,0,0-.159,1.745A4.732,4.732,0,0,0,67.7,15.76c.293.5.382.508.224.024a4.684,4.684,0,0,1-.117-1.065,4.729,4.729,0,0,1,1.981-3.638,5.412,5.412,0,0,1,1.492-.972c.378-.157.766-.32.861-.362.228-.1.673-.1.673,0,0,.044-.1.141-.221.214a2.8,2.8,0,0,0-.979,1.18c-.111.356-.056.782.263,2.034.281,1.1.015,2.618-.521,2.969-.127.083-.066.1.333.1a2.571,2.571,0,0,1,1.983.95,6.655,6.655,0,0,0,.832.689,6.654,6.654,0,0,0,.832-.689Zm-18.1.21,2.78-.055-.293-.179c-.161-.1-.618-.447-1.014-.774a4.127,4.127,0,0,1-1.467-2.15,26.089,26.089,0,0,1-.375-4.823c-.032-1.931.019-1.838-1.193-2.156a5.171,5.171,0,0,1-.846-.275,11.2,11.2,0,0,0-2.839-.069l-.28.092.22.336a1.106,1.106,0,0,1,.167.9,1.95,1.95,0,0,1-1.064,1.559c-.435.286-.465.292-1.1.236a5.384,5.384,0,0,1-1.123-.23c-.485-.177-1.069-.658-1.069-.881,0-.2-.143-.145-.335.135a3.254,3.254,0,0,1-2.252.942,3.507,3.507,0,0,0-2.651,1.834,2.673,2.673,0,0,0-.333.834c0,.319-.109.3-.459-.083A2.126,2.126,0,0,1,41.1,10.64a2.374,2.374,0,0,1,.367-1.483,5.244,5.244,0,0,1,1.293-1.647,3.66,3.66,0,0,0,.507-.492c-.026,0-.2.04-.395.088s-.661.162-1.044.252a33.008,33.008,0,0,0-3.72,1.262,5.815,5.815,0,0,1-.847.4l-.788.323.35.188a8.723,8.723,0,0,1,1.724,1.558c.219.221.532.523.7.671a8.535,8.535,0,0,1,.6.612,45.038,45.038,0,0,0,3.533,3.028c.191.123.588.389.881.592a2.04,2.04,0,0,0,.578.33,1.391,1.391,0,0,0-.255-.5,3.421,3.421,0,0,1,.048-3.925c.405-.565.637-.658.637-.257,0,.729.726,1.614,2.151,2.623.876.62,1.629,1.354,1.629,1.587,0,.153.181.06.238-.122a2.634,2.634,0,0,1,1.113-1.133,4.347,4.347,0,0,0,.564-.291,7.025,7.025,0,0,1,.886-.4,5.56,5.56,0,0,0,1-.5,1.236,1.236,0,0,1,.382-.221c.049,0,.089-.054.089-.119s.112-.143.249-.173.249-.091.249-.138a.57.57,0,0,1,.194-.251,2.019,2.019,0,0,0,.445-1.117c.133-.658.422-.648.747.025a3.408,3.408,0,0,1,.4,2.222,4.777,4.777,0,0,1-1.025,2.117,5.637,5.637,0,0,1-1.6,1.326,6.641,6.641,0,0,0-.654.459,9.341,9.341,0,0,0,1.068-.02c.588-.028,2.32-.075,3.849-.105Zm39.443.116c0-.012-.295-.214-.654-.449a5.638,5.638,0,0,1-1.6-1.326A4.778,4.778,0,0,1,93.4,13.629a3.408,3.408,0,0,1,.4-2.222c.325-.673.614-.683.747-.025A2.019,2.019,0,0,0,95,12.5a.57.57,0,0,1,.194.251c0,.046.112.108.249.138s.249.107.249.173.04.119.089.119a1.235,1.235,0,0,1,.382.221,5.56,5.56,0,0,0,1,.5,7.023,7.023,0,0,1,.886.4,4.346,4.346,0,0,0,.564.291,2.634,2.634,0,0,1,1.113,1.133c.057.182.238.274.238.122,0-.234.753-.967,1.629-1.587,1.425-1.008,2.151-1.894,2.151-2.623,0-.4.232-.308.637.257a3.421,3.421,0,0,1,.048,3.925,1.391,1.391,0,0,0-.255.5,2.04,2.04,0,0,0,.578-.33c.293-.2.69-.469.881-.592a45.04,45.04,0,0,0,3.533-3.028,8.533,8.533,0,0,1,.6-.612c.164-.148.477-.45.7-.671a8.723,8.723,0,0,1,1.724-1.558l.35-.188-.788-.323a5.815,5.815,0,0,1-.847-.4,33.008,33.008,0,0,0-3.72-1.262c-.383-.09-.853-.2-1.044-.252s-.369-.088-.395-.088a3.661,3.661,0,0,0,.507.492,5.244,5.244,0,0,1,1.293,1.647,2.374,2.374,0,0,1,.367,1.483,2.126,2.126,0,0,1-.617,1.961c-.35.383-.459.4-.459.083a2.673,2.673,0,0,0-.333-.834,3.507,3.507,0,0,0-2.651-1.834,3.255,3.255,0,0,1-2.252-.942c-.192-.28-.335-.337-.335-.135,0,.224-.583.7-1.069.881a5.384,5.384,0,0,1-1.123.23c-.632.056-.662.049-1.1-.236a1.95,1.95,0,0,1-1.064-1.559,1.106,1.106,0,0,1,.167-.9l.22-.336-.28-.092a11.2,11.2,0,0,0-2.839.069,5.171,5.171,0,0,1-.846.275c-1.213.319-1.161.225-1.193,2.156a26.089,26.089,0,0,1-.375,4.823,4.128,4.128,0,0,1-1.467,2.15c-.4.327-.855.679-1.019.782l-.3.186,1.094.014c.926.012,4.261.092,6.092.147a3.2,3.2,0,0,0,.521-.006Zm-30.888-.984a16.333,16.333,0,0,1-1.645-2.76c-.187-.353-.619-1.061-.961-1.573s-.622-.948-.622-.969a19.238,19.238,0,0,0-1.84-1.75c-.8-.66-2.039-1.406-2.039-1.227,0,.134.206,1.74.4,3.122a7.575,7.575,0,0,0,.685,2.222.954.954,0,0,0,.258-.271,2.171,2.171,0,0,1,2.293-.471,1.751,1.751,0,0,1,.626,2.857c-.113.1-.173.231-.135.284a8.989,8.989,0,0,0,3.064.938l.278.005-.362-.406Zm18.289.234A7.373,7.373,0,0,0,86.19,16c.038-.053-.023-.181-.135-.284a1.751,1.751,0,0,1,.626-2.857,2.171,2.171,0,0,1,2.293.471.954.954,0,0,0,.258.271,7.575,7.575,0,0,0,.685-2.222c.194-1.383.4-2.989.4-3.122,0-.179-1.24.567-2.039,1.227a19.241,19.241,0,0,0-1.84,1.75c0,.021-.28.457-.622.969s-.775,1.22-.961,1.573a16.333,16.333,0,0,1-1.645,2.76c-.353.4-.356.407-.128.407a7.447,7.447,0,0,0,1-.173ZM55.533,4.165A6.125,6.125,0,0,0,53.4,2.42c-.4-.144-.382-.151-.362.169a1.647,1.647,0,0,1-.061.513c-.062.188-.045.235.085.235a9.914,9.914,0,0,1,2.046.744c.39.222.547.253.429.083ZM93.9,4.082a9.914,9.914,0,0,1,2.046-.744c.129,0,.147-.048.085-.235a1.647,1.647,0,0,1-.061-.513c.02-.32.035-.312-.362-.169a5.418,5.418,0,0,0-1.661,1.2c-.668.72-.677.818-.046.458Z" transform="translate(150.499 653)" fill="#ffb13b"/>
    </g>
    <path id="Tracciato_62" data-name="Tracciato 62" d="M0,21.923,165-40,330,21.923v5.754L165-34.246,0,27.677Z" transform="translate(60 999.938)" fill="#dfdfdd"/>
    <path id="Tracciato_63" data-name="Tracciato 63" d="M0,21.923,165-40,330,21.923V24.8L165-37.123,0,24.8Z" transform="translate(60 1017.199)" fill="#dfdfdd"/>
  </g>
</svg>
