<svg xmlns="http://www.w3.org/2000/svg" xmlns:xlink="http://www.w3.org/1999/xlink" width="550" height="948" viewBox="0 0 550 948"><defs><filter id="a" x="41.5" y="0" width="467" height="948" filterUnits="userSpaceOnUse"><feOffset dy="5" input="SourceAlpha"/><feGaussianBlur stdDeviation="7.5" result="b"/><feFlood flood-color="#122a40"/><feComposite operator="in" in2="b"/><feComposite in="SourceGraphic"/></filter></defs><g transform="translate(-52.373 -9955.873)"><g transform="translate(52 9957)"><rect width="7" height="40" rx="2" transform="translate(40.373 0.373)" fill="#bb7d10"/><rect width="7" height="40" rx="2" transform="translate(503.373 0.373)" fill="#bb7d10"/><rect width="518" height="11" transform="translate(20.373 16.373)" fill="#ffb13b"/><rect width="518" height="4" transform="translate(20.373 16.373)" fill="#bb7d10"/><circle cx="20" cy="20" r="20" transform="translate(0.373 0.373)" fill="#ba7c0f"/><circle cx="20" cy="20" r="20" transform="translate(510.373 0.373)" fill="#ba7c0f"/><ellipse cx="20" cy="20.5" rx="20" ry="20.5" transform="translate(0.373 1.373)" fill="#ffb13b"/><ellipse cx="20" cy="20.5" rx="20" ry="20.5" transform="translate(510.373 1.373)" fill="#ffb13b"/><rect width="8" height="40" rx="2" transform="translate(38.373 0.373)" fill="#ffb13b"/><rect width="8" height="40" rx="2" transform="translate(504.373 0.373)" fill="#ffb13b"/></g><g transform="translate(116.254 9973.522)"><g transform="matrix(1, 0, 0, 1, -63.88, -17.65)" filter="url(#a)"><path d="M211,811.231,0,903V23.859H24.393V0H70.74V23.859h36.59V0h46.347V23.859h34.15V0h46.347V23.859h36.59V0h46.347V23.859h34.15V0h46.347V23.859H422V903Z" transform="translate(64 17.5)" fill="#882b21"/></g><path d="M0,41.791,210.58-50l210.58,91.791v7.343L210.58-42.657,0,49.134Z" transform="translate(0 817.373)" fill="#dfdfdd"/><path d="M0,41.791,210.58-50l210.58,91.791v3.672L210.58-46.328,0,45.463Z" transform="translate(0 839.403)" fill="#dfdfdd"/></g></g></svg>