<svg xmlns="http://www.w3.org/2000/svg" width="463" height="129.503" viewBox="0 0 463 129.503"><g transform="translate(-48 -36)"><g transform="translate(354.5 165.503) rotate(180)" fill="none"><path d="M75,0l75,129.5H0Z" stroke="none"/><path d="M 75 21.94911956787109 L 19.08204650878906 118.5031127929688 L 130.9179534912109 118.5031127929688 L 75 21.94911956787109 M 75 0 L 150 129.5031127929688 L 0 129.5031127929688 L 75 0 Z" stroke="none" fill="#bf7300"/></g><g transform="translate(192.322 33.651)" fill="none"><path d="M12.178,2.349h3.035l73.369,127.08-1.4,2.423Z" stroke="none"/><path d="M 12.17788696289062 2.348983764648438 L 15.21258544921875 2.348983764648438 L 88.58174896240234 129.4287567138672 L 87.17849731445312 131.8517913818359 L 12.17788696289062 2.348983764648438 Z" stroke="none" fill="#ffb13b"/></g><g transform="translate(0 0.5)"><text transform="translate(50 99)" fill="#bf7300" stroke="#bf7300" stroke-width="1" font-size="50" font-family="Cinzel"><tspan x="0" y="0">ANCIENT SOCIETY</tspan></text><text transform="translate(50 98.5)" fill="#ffb13b" font-size="50" font-family="Cinzel"><tspan x="0" y="0">ANCIENT SOCIETY</tspan></text><path d="M50,124.357H509" transform="translate(0 -7.357)" fill="none" stroke="#bf7300" stroke-width="3"/><path d="M50,124.357H509" transform="translate(0 -8.357)" fill="none" stroke="#ffb13b" stroke-width="3"/></g></g></svg>