<?xml version="1.0" encoding="UTF-8"?>
<svg width="752pt" height="752pt" version="1.1" viewBox="0 0 752 752" xmlns="http://www.w3.org/2000/svg">
 <g>
  <path d="m376 159.15c-57.512 0-112.67 22.844-153.34 63.512-40.668 40.668-63.512 95.824-63.512 153.34s22.844 112.67 63.512 153.34c40.668 40.668 95.824 63.516 153.34 63.516s112.67-22.848 153.34-63.516c40.668-40.664 63.516-95.824 63.516-153.34-0.050781-57.496-22.918-112.62-63.57-153.28-40.656-40.656-95.785-63.52-153.28-63.57zm0 418.75v-0.003907c-53.543 0-104.9-21.27-142.76-59.133-37.859-37.863-59.133-89.215-59.133-142.76 0-53.543 21.273-104.9 59.133-142.76 37.863-37.859 89.219-59.133 142.76-59.133 53.547 0 104.9 21.273 142.76 59.133 37.863 37.863 59.133 89.219 59.133 142.76-0.0625 53.527-21.355 104.84-59.203 142.69-37.852 37.848-89.164 59.141-142.69 59.203z"/>
  <path d="m446.74 230.84c-5.1641-5.1367-12.156-8.0234-19.441-8.0234s-14.273 2.8867-19.441 8.0234l-134.6 134.6c-2.0508 2.1328-3.7344 4.5938-4.9844 7.2773l-1.5938 3.2422 1.5938 3.2422v-0.003906c1.2578 2.7109 2.9414 5.1992 4.9844 7.3789l134.6 134.6c7 6.7227 17.02 9.2617 26.375 6.6836 9.3555-2.5781 16.664-9.8906 19.23-19.25 2.5664-9.3594 0.011718-19.379-6.7227-26.367l-106.23-106.23 106.23-106.23c5.1562-5.168 8.0508-12.168 8.0508-19.465 0-7.3008-2.8945-14.301-8.0508-19.469z"/>
 </g>
</svg>
