<svg width="27" height="27" viewBox="0 0 27 27" fill="none" xmlns="http://www.w3.org/2000/svg">
<path d="M20.168 7.43091H7.81934V18.6543H20.168V7.43091Z" fill="white"/>
<path fill-rule="evenodd" clip-rule="evenodd" d="M23.9935 14.0011C23.9935 19.5167 19.5194 23.9878 14.0002 23.9878C8.48101 23.9878 4.00684 19.5167 4.00684 14.0011C4.00684 8.4856 8.48101 4.0144 14.0002 4.0144C19.5194 4.0144 23.9935 8.4856 23.9935 14.0011ZM11.1684 17.9753H9.22893C8.82139 17.9753 8.62009 17.9753 8.49735 17.8969C8.36477 17.811 8.28376 17.6687 8.27394 17.5116C8.26657 17.3669 8.36724 17.1902 8.56854 16.8369L13.3572 8.40184C13.561 8.04365 13.6641 7.86455 13.7942 7.79831C13.9341 7.72717 14.1011 7.72717 14.241 7.79831C14.3711 7.86455 14.4742 8.04365 14.678 8.40184L15.6625 10.1192L15.6675 10.1279C15.8876 10.5122 15.9992 10.7071 16.0479 10.9116C16.1019 11.1349 16.1019 11.3704 16.0479 11.5936C15.9988 11.7997 15.8883 11.996 15.6649 12.3861L13.1495 16.8296L13.143 16.841C12.9215 17.2284 12.8092 17.4248 12.6536 17.5729C12.4842 17.7349 12.2805 17.8526 12.0571 17.9189C11.8533 17.9753 11.625 17.9753 11.1684 17.9753ZM16.0661 17.9753H18.845C19.255 17.9753 19.4613 17.9753 19.5841 17.8945C19.7166 17.8086 19.8001 17.6637 19.8075 17.5068C19.8146 17.3668 19.7161 17.197 19.5231 16.8642C19.5165 16.8529 19.5098 16.8414 19.503 16.8296L18.111 14.4499L18.0952 14.4231C17.8996 14.0926 17.8008 13.9256 17.674 13.8611C17.5342 13.79 17.3696 13.79 17.2297 13.8611C17.102 13.9273 16.9989 14.1015 16.7952 14.4524L15.4081 16.8321L15.4034 16.8403C15.2003 17.1906 15.0988 17.3656 15.1062 17.5092C15.116 17.6663 15.197 17.811 15.3296 17.8969C15.4499 17.9753 15.6561 17.9753 16.0661 17.9753Z" fill="#E84142"/>
</svg>
