<svg width="27" height="27" viewBox="0 0 27 27" fill="none" xmlns="http://www.w3.org/2000/svg">
<path fill-rule="evenodd" clip-rule="evenodd" d="M13.5 3L7.66706 6.21659L9.81154 7.40489L13.5 5.37659L17.1885 7.40489L19.333 6.21659L13.5 3ZM17.1885 9.08489L19.333 10.2732V12.6498L15.6444 14.6781V18.7347L13.5 19.923L11.3556 18.7347V14.6781L7.66706 12.6498V10.2732L9.81154 9.08489L13.5 11.1132L17.1885 9.08489ZM19.333 14.3298V16.7064L17.1885 17.8947V15.518L19.333 14.3298ZM17.1671 19.5746L20.8556 17.5463V13.4897L23 12.3015V18.7347L17.1671 21.9512V19.5746ZM20.8556 9.43318L18.7111 8.24489L20.8556 7.05659L23 8.24489V10.6215L20.8556 11.8098V9.43318ZM11.3556 22.8118V20.4352L13.5 21.6234L15.6444 20.4352V22.8118L13.5 24L11.3556 22.8118ZM9.81154 17.8947L7.66706 16.7064V14.3298L9.81154 15.518V17.8947ZM13.5 9.43318L11.3556 8.24489L13.5 7.05659L15.6444 8.24489L13.5 9.43318ZM8.28894 8.24489L6.14447 9.43318V11.8098L4 10.6215V8.24489L6.14447 7.05659L8.28894 8.24489ZM4 12.3015L6.14447 13.4897V17.5463L9.83296 19.5746V21.9512L4 18.7347V12.3015Z" fill="#F0B90B"/>
</svg>
