<svg width="27" height="27" viewBox="0 0 27 27" fill="none" xmlns="http://www.w3.org/2000/svg">
<g clip-path="url(#clip0_509_6101)">
<path d="M18.1412 5C17.2274 4.99925 16.3506 5.38484 15.7033 6.07215C15.056 6.75945 14.6911 7.6923 14.6888 8.66593V12.7305C14.3332 12.7561 13.9697 12.7722 13.5928 12.7722C13.2159 12.7722 12.8541 12.7883 12.4968 12.811V8.66593C12.4822 7.70074 12.1122 6.78033 11.4664 6.10326C10.8206 5.42618 9.95082 5.04671 9.04477 5.04671C8.13872 5.04671 7.26898 5.42618 6.62319 6.10326C5.9774 6.78033 5.60731 7.70074 5.59277 8.66593V18.3805C5.60731 19.3457 5.9774 20.2661 6.62319 20.9432C7.26898 21.6202 8.13872 21.9997 9.04477 21.9997C9.95082 21.9997 10.8206 21.6202 11.4664 20.9432C12.1122 20.2661 12.4822 19.3457 12.4968 18.3805V14.3159C12.8523 14.2903 13.2159 14.2742 13.5928 14.2742C13.9697 14.2742 14.3314 14.2581 14.6888 14.2354V18.3805C14.7033 19.3457 15.0734 20.2661 15.7192 20.9432C16.365 21.6202 17.2347 21.9997 18.1408 21.9997C19.0468 21.9997 19.9166 21.6202 20.5624 20.9432C21.2082 20.2661 21.5782 19.3457 21.5928 18.3805V8.66593C21.5904 7.69246 21.2257 6.75976 20.5786 6.07248C19.9315 5.3852 19.0549 4.9995 18.1412 5ZM9.04433 6.50198C9.58366 6.50173 10.1011 6.72942 10.483 7.1351C10.865 7.54079 11.0803 8.09133 11.0817 8.66593V12.9701C10.0717 13.1261 9.08542 13.4232 8.14833 13.8537C7.74231 14.0436 7.36011 14.2866 7.01055 14.5772V8.66593C7.01196 8.09198 7.22677 7.54202 7.60795 7.13644C7.98913 6.73087 8.50562 6.50273 9.04433 6.50198ZM11.0817 18.3805C11.0817 18.9562 10.867 19.5083 10.4849 19.9153C10.1029 20.3224 9.58466 20.5511 9.04433 20.5511C8.50399 20.5511 7.98579 20.3224 7.60372 19.9153C7.22164 19.5083 7.007 18.9562 7.007 18.3805V17.406C7.007 16.5452 7.647 15.7298 8.71988 15.2222C9.47586 14.8747 10.2691 14.6276 11.0817 14.4863V18.3805ZM18.1412 20.5444C17.6019 20.5447 17.0845 20.317 16.7025 19.9113C16.3206 19.5056 16.1053 18.9551 16.1039 18.3805V14.0763C17.1139 13.9203 18.1001 13.6233 19.0372 13.1927C19.4432 13.0028 19.8254 12.7598 20.175 12.4692V18.3805C20.1736 18.9544 19.9588 19.5044 19.5776 19.91C19.1964 20.3155 18.6799 20.5437 18.1412 20.5444ZM18.4657 11.8186C17.7097 12.166 16.9165 12.4132 16.1039 12.5544V8.66593C16.1039 8.09025 16.3185 7.53816 16.7006 7.1311C17.0827 6.72404 17.6009 6.49535 18.1412 6.49535C18.6816 6.49535 19.1998 6.72404 19.5818 7.1311C19.9639 7.53816 20.1786 8.09025 20.1786 8.66593V9.64041C20.1786 10.4975 19.5386 11.3129 18.4657 11.8186Z" fill="url(#paint0_linear_509_6101)"/>
</g>
<defs>
<linearGradient id="paint0_linear_509_6101" x1="6.60611" y1="20.7332" x2="21.369" y2="6.83872" gradientUnits="userSpaceOnUse">
<stop stop-color="#00AEE9"/>
<stop offset="1" stop-color="#69FABD"/>
</linearGradient>
<clipPath id="clip0_509_6101">
<rect width="16" height="17" fill="white" transform="translate(5.59277 5)"/>
</clipPath>
</defs>
</svg>
