<svg width="27" height="27" viewBox="0 0 27 27" fill="none" xmlns="http://www.w3.org/2000/svg">
<path d="M19.3561 10.1099C18.9317 9.85622 18.38 9.85622 17.9133 10.1099L14.6033 12.055L12.3542 13.3235L9.04428 15.2685C8.61992 15.5222 8.06826 15.5222 7.60146 15.2685L4.97048 13.7463C4.54612 13.4926 4.24908 13.0275 4.24908 12.5201V9.51795C4.24908 9.01057 4.50369 8.54544 4.97048 8.29175L7.55903 6.81184C7.98339 6.55814 8.53505 6.55814 9.00185 6.81184L11.5904 8.29175C12.0148 8.54544 12.3118 9.01057 12.3118 9.51795V11.463L14.5609 10.1522V8.20717C14.5609 7.69979 14.3063 7.23467 13.8395 6.98097L9.04428 4.19027C8.61992 3.93658 8.06826 3.93658 7.60146 4.19027L2.7214 6.98097C2.25461 7.23467 2 7.69979 2 8.20717V13.8309C2 14.3383 2.25461 14.8034 2.7214 15.0571L7.60146 17.8478C8.02582 18.1015 8.57749 18.1015 9.04428 17.8478L12.3542 15.945L14.6033 14.6343L17.9133 12.7315C18.3376 12.4778 18.8893 12.4778 19.3561 12.7315L21.9446 14.2114C22.369 14.4651 22.666 14.9302 22.666 15.4376V18.4397C22.666 18.9472 22.4114 19.4123 21.9446 19.6659L19.3561 21.1882C18.9317 21.4419 18.38 21.4419 17.9133 21.1882L15.3247 19.7082C14.9004 19.4545 14.6033 18.9894 14.6033 18.482V16.537L12.3542 17.8478V19.7928C12.3542 20.3002 12.6089 20.7653 13.0757 21.019L17.9557 23.8097C18.38 24.0634 18.9317 24.0634 19.3985 23.8097L24.2786 21.019C24.7029 20.7653 25 20.3002 25 19.7928V14.1691C25 13.6617 24.7454 13.1966 24.2786 12.9429L19.3561 10.1099Z" fill="#8247E5"/>
</svg>
